<?xml version="1.0" encoding="utf-8"?>
<!-- Generator: Adobe Illustrator 16.0.0, SVG Export Plug-In . SVG Version: 6.00 Build 0)  -->
<!DOCTYPE svg PUBLIC "-//W3C//DTD SVG 1.1//EN" "http://www.w3.org/Graphics/SVG/1.1/DTD/svg11.dtd">
<svg version="1.1" xmlns="http://www.w3.org/2000/svg" xmlns:xlink="http://www.w3.org/1999/xlink" x="0px" y="0px" width="600px"
	 height="800px" viewBox="0 0 600 800" enable-background="new 0 0 600 800" xml:space="preserve">
<symbol  id="bagasse_x5F_coal" viewBox="-20 -20.121 40 40">
	<g>
		<g>
			<polygon opacity="0.8" points="-11.496,-3.63 -9.668,-4.57 -8.217,-3.794 -5.86,-3.064 -6.473,-1.231 -5.223,1.072 -7.155,2.25 
				-8.618,1.684 -9.138,2.25 -10.388,2.931 -13.501,1.638 -13.359,-0.292 -14.209,-2.031 -13.194,-3.49 			"/>
			<polygon opacity="0.3" fill="#FFFFFF" points="-10.341,-0.126 -13.359,-0.292 -14.209,-2.031 			"/>
			<polygon opacity="0.8" points="-11.496,-3.63 -9.668,-4.57 -8.217,-3.794 -10.953,-2.29 -14.209,-2.031 -13.194,-3.49 			"/>
			<polygon opacity="0.8" points="-8.217,-3.794 -5.86,-3.064 -6.473,-1.231 			"/>
			<polygon opacity="0.2" fill="#FFFFFF" points="-8.618,1.684 -9.138,2.25 -10.388,2.931 -13.501,1.638 -13.359,-0.292 
				-10.294,-0.126 			"/>
			<polygon opacity="0.7" points="-13.501,1.638 -13.359,-0.292 -10.294,-0.126 			"/>
			<polygon opacity="0.7" points="-8.618,1.684 -9.138,2.25 -10.388,2.931 -10.294,-0.126 			"/>
			<polygon opacity="0.1" fill="#6D6E71" points="-8.618,-0.384 -8.217,-3.794 -6.473,-1.231 -5.223,1.072 -7.155,2.25 
				-8.618,1.684 			"/>
			<polygon opacity="0.6" points="-8.618,-0.384 -7.203,0.321 -6.473,-1.231 -5.223,1.072 -7.155,2.25 -8.618,1.684 			"/>
			<polygon opacity="0.2" fill="#FFFFFF" points="-8.618,-0.384 -7.203,0.321 -7.155,2.25 -8.618,1.684 			"/>
		</g>
		<g>
			<polygon opacity="0.8" points="-10.399,-3.713 -8.57,-4.653 -7.121,-3.878 -4.763,-3.148 -5.376,-1.314 -4.125,0.991 
				-6.06,2.167 -7.522,1.603 -8.042,2.167 -9.291,2.85 -12.404,1.556 -12.264,-0.373 -13.112,-2.113 -12.099,-3.571 			"/>
			<polygon opacity="0.3" fill="#FFFFFF" points="-9.242,-0.208 -12.264,-0.373 -13.112,-2.113 			"/>
			<polygon opacity="0.8" points="-10.399,-3.713 -8.57,-4.653 -7.121,-3.878 -9.856,-2.373 -13.112,-2.113 -12.099,-3.571 			"/>
			<polygon opacity="0.8" points="-7.121,-3.878 -4.763,-3.148 -5.376,-1.314 			"/>
			<polygon opacity="0.2" fill="#FFFFFF" points="-7.522,1.603 -8.042,2.167 -9.291,2.85 -12.404,1.556 -12.264,-0.373 
				-9.196,-0.208 			"/>
			<polygon opacity="0.7" points="-12.404,1.556 -12.264,-0.373 -9.196,-0.208 			"/>
			<polygon opacity="0.7" points="-7.522,1.603 -8.042,2.167 -9.291,2.85 -9.196,-0.208 			"/>
			<polygon opacity="0.1" fill="#6D6E71" points="-7.522,-0.467 -7.121,-3.878 -5.376,-1.314 -4.125,0.991 -6.06,2.167 
				-7.522,1.603 			"/>
			<polygon opacity="0.6" points="-7.522,-0.467 -6.106,0.238 -5.376,-1.314 -4.125,0.991 -6.06,2.167 -7.522,1.603 			"/>
			<polygon opacity="0.2" fill="#FFFFFF" points="-7.522,-0.467 -6.106,0.238 -6.06,2.167 -7.522,1.603 			"/>
		</g>
		<g>
			<polygon opacity="0.8" points="-7.64,-2.301 -5.811,-3.242 -4.361,-2.467 -2.003,-1.737 -2.616,0.098 -1.365,2.403 -3.301,3.578 
				-4.763,3.015 -5.281,3.578 -6.531,4.261 -9.644,2.967 -9.503,1.038 -10.352,-0.702 -9.337,-2.16 			"/>
			<polygon opacity="0.3" fill="#FFFFFF" points="-6.484,1.202 -9.503,1.038 -10.352,-0.702 			"/>
			<polygon opacity="0.8" points="-7.64,-2.301 -5.811,-3.242 -4.361,-2.467 -7.098,-0.96 -10.352,-0.702 -9.337,-2.16 			"/>
			<polygon opacity="0.8" points="-4.361,-2.467 -2.003,-1.737 -2.616,0.098 			"/>
			<polygon opacity="0.2" fill="#FFFFFF" points="-4.763,3.015 -5.281,3.578 -6.531,4.261 -9.644,2.967 -9.503,1.038 -6.438,1.202 
							"/>
			<polygon opacity="0.7" points="-9.644,2.967 -9.503,1.038 -6.438,1.202 			"/>
			<polygon opacity="0.7" points="-4.763,3.015 -5.281,3.578 -6.531,4.261 -6.438,1.202 			"/>
			<polygon opacity="0.1" fill="#6D6E71" points="-4.763,0.944 -4.361,-2.467 -2.616,0.098 -1.365,2.403 -3.301,3.578 -4.763,3.015 
							"/>
			<polygon opacity="0.6" points="-4.763,0.944 -3.348,1.649 -2.616,0.098 -1.365,2.403 -3.301,3.578 -4.763,3.015 			"/>
			<polygon opacity="0.2" fill="#FFFFFF" points="-4.763,0.944 -3.348,1.649 -3.301,3.578 -4.763,3.015 			"/>
		</g>
		<g>
			<polygon opacity="0.8" points="-5.58,0.472 -3.752,-0.469 -2.301,0.307 0.056,1.036 -0.557,2.871 0.693,5.176 -1.24,6.352 
				-2.702,5.788 -3.222,6.352 -4.472,7.034 -7.585,5.74 -7.442,3.812 -8.293,2.072 -7.278,0.614 			"/>
			<polygon opacity="0.3" fill="#FFFFFF" points="-4.425,3.978 -7.442,3.812 -8.293,2.072 			"/>
			<polygon opacity="0.8" points="-5.58,0.472 -3.752,-0.469 -2.301,0.307 -5.037,1.812 -8.293,2.072 -7.278,0.614 			"/>
			<polygon opacity="0.8" points="-2.301,0.307 0.056,1.036 -0.557,2.871 			"/>
			<polygon opacity="0.2" fill="#FFFFFF" points="-2.702,5.788 -3.222,6.352 -4.472,7.034 -7.585,5.74 -7.442,3.812 -4.377,3.978 
							"/>
			<polygon opacity="0.7" points="-7.585,5.74 -7.442,3.812 -4.377,3.978 			"/>
			<polygon opacity="0.7" points="-2.702,5.788 -3.222,6.352 -4.472,7.034 -4.377,3.978 			"/>
			<polygon opacity="0.1" fill="#6D6E71" points="-2.702,3.718 -2.301,0.307 -0.557,2.871 0.693,5.176 -1.24,6.352 -2.702,5.788 			
				"/>
			<polygon opacity="0.6" points="-2.702,3.718 -1.288,4.424 -0.557,2.871 0.693,5.176 -1.24,6.352 -2.702,5.788 			"/>
			<polygon opacity="0.2" fill="#FFFFFF" points="-2.702,3.718 -1.288,4.424 -1.24,6.352 -2.702,5.788 			"/>
		</g>
		<g>
			<polygon opacity="0.8" points="-5.695,3.237 -3.864,2.295 -2.416,3.072 -0.057,3.801 -0.671,5.636 0.58,7.94 -1.354,9.117 
				-2.815,8.552 -3.335,9.117 -4.586,9.8 -7.698,8.505 -7.557,6.577 -8.406,4.836 -7.392,3.379 			"/>
			<polygon opacity="0.3" fill="#FFFFFF" points="-4.538,6.74 -7.557,6.577 -8.406,4.836 			"/>
			<polygon opacity="0.8" points="-5.695,3.237 -3.864,2.295 -2.416,3.072 -5.152,4.578 -8.406,4.836 -7.392,3.379 			"/>
			<polygon opacity="0.8" points="-2.416,3.072 -0.057,3.801 -0.671,5.636 			"/>
			<polygon opacity="0.2" fill="#FFFFFF" points="-2.815,8.552 -3.335,9.117 -4.586,9.8 -7.698,8.505 -7.557,6.577 -4.491,6.74 			
				"/>
			<polygon opacity="0.7" points="-7.698,8.505 -7.557,6.577 -4.491,6.74 			"/>
			<polygon opacity="0.7" points="-2.815,8.552 -3.335,9.117 -4.586,9.8 -4.491,6.74 			"/>
			<polygon opacity="0.1" fill="#6D6E71" points="-2.815,6.482 -2.416,3.072 -0.671,5.636 0.58,7.94 -1.354,9.117 -2.815,8.552 			
				"/>
			<polygon opacity="0.6" points="-2.815,6.482 -1.402,7.188 -0.671,5.636 0.58,7.94 -1.354,9.117 -2.815,8.552 			"/>
			<polygon opacity="0.2" fill="#FFFFFF" points="-2.815,6.482 -1.402,7.188 -1.354,9.117 -2.815,8.552 			"/>
		</g>
		<g>
			<polygon opacity="0.8" points="-8.819,-0.515 -6.99,-1.454 -5.541,-0.679 -3.183,0.05 -3.795,1.886 -2.546,4.19 -4.48,5.365 
				-5.941,4.802 -6.46,5.365 -7.712,6.048 -10.824,4.754 -10.683,2.825 -11.531,1.085 -10.517,-0.373 			"/>
			<polygon opacity="0.3" fill="#FFFFFF" points="-7.664,2.99 -10.683,2.825 -11.531,1.085 			"/>
			<polygon opacity="0.8" points="-8.819,-0.515 -6.99,-1.454 -5.541,-0.679 -8.276,0.826 -11.531,1.085 -10.517,-0.373 			"/>
			<polygon opacity="0.8" points="-5.541,-0.679 -3.183,0.05 -3.795,1.886 			"/>
			<polygon opacity="0.2" fill="#FFFFFF" points="-5.941,4.802 -6.46,5.365 -7.712,6.048 -10.824,4.754 -10.683,2.825 -7.617,2.99 
							"/>
			<polygon opacity="0.7" points="-10.824,4.754 -10.683,2.825 -7.617,2.99 			"/>
			<polygon opacity="0.7" points="-5.941,4.802 -6.46,5.365 -7.712,6.048 -7.617,2.99 			"/>
			<polygon opacity="0.1" fill="#6D6E71" points="-5.941,2.731 -5.541,-0.679 -3.795,1.886 -2.546,4.19 -4.48,5.365 -5.941,4.802 
							"/>
			<polygon opacity="0.6" points="-5.941,2.731 -4.526,3.437 -3.795,1.886 -2.546,4.19 -4.48,5.365 -5.941,4.802 			"/>
			<polygon opacity="0.2" fill="#FFFFFF" points="-5.941,2.731 -4.526,3.437 -4.48,5.365 -5.941,4.802 			"/>
		</g>
		<g>
			<polygon opacity="0.8" points="-2.274,-0.562 -0.445,-1.501 1.005,-0.726 3.362,0.004 2.75,1.838 3.999,4.143 2.066,5.318 
				0.603,4.754 0.084,5.318 -1.166,6 -4.278,4.707 -4.138,2.778 -4.986,1.038 -3.973,-0.421 			"/>
			<polygon opacity="0.3" fill="#FFFFFF" points="-1.119,2.944 -4.138,2.778 -4.986,1.038 			"/>
			<polygon opacity="0.8" points="-2.274,-0.562 -0.445,-1.501 1.005,-0.726 -1.732,0.779 -4.986,1.038 -3.973,-0.421 			"/>
			<polygon opacity="0.8" points="1.005,-0.726 3.362,0.004 2.75,1.838 			"/>
			<polygon opacity="0.2" fill="#FFFFFF" points="0.603,4.754 0.084,5.318 -1.166,6 -4.278,4.707 -4.138,2.778 -1.072,2.944 			"/>
			<polygon opacity="0.7" points="-4.278,4.707 -4.138,2.778 -1.072,2.944 			"/>
			<polygon opacity="0.7" points="0.603,4.754 0.084,5.318 -1.166,6 -1.072,2.944 			"/>
			<polygon opacity="0.1" fill="#6D6E71" points="0.603,2.684 1.005,-0.726 2.75,1.838 3.999,4.143 2.066,5.318 0.603,4.754 			"/>
			<polygon opacity="0.6" points="0.603,2.684 2.02,3.39 2.75,1.838 3.999,4.143 2.066,5.318 0.603,4.754 			"/>
			<polygon opacity="0.2" fill="#FFFFFF" points="0.603,2.684 2.02,3.39 2.066,5.318 0.603,4.754 			"/>
		</g>
		<g>
			<polygon opacity="0.8" points="-0.931,-5.041 0.899,-5.983 2.349,-5.206 4.707,-4.478 4.094,-2.643 5.345,-0.338 3.41,0.838 
				1.949,0.273 1.429,0.838 0.179,1.521 -2.934,0.227 -2.793,-1.702 -3.642,-3.442 -2.628,-4.9 			"/>
			<polygon opacity="0.3" fill="#FFFFFF" points="0.227,-1.538 -2.793,-1.702 -3.642,-3.442 			"/>
			<polygon opacity="0.8" points="-0.931,-5.041 0.899,-5.983 2.349,-5.206 -0.388,-3.701 -3.642,-3.442 -2.628,-4.9 			"/>
			<polygon opacity="0.8" points="2.349,-5.206 4.707,-4.478 4.094,-2.643 			"/>
			<polygon opacity="0.2" fill="#FFFFFF" points="1.949,0.273 1.429,0.838 0.179,1.521 -2.934,0.227 -2.793,-1.702 0.272,-1.538 			
				"/>
			<polygon opacity="0.7" points="-2.934,0.227 -2.793,-1.702 0.272,-1.538 			"/>
			<polygon opacity="0.7" points="1.949,0.273 1.429,0.838 0.179,1.521 0.272,-1.538 			"/>
			<polygon opacity="0.1" fill="#6D6E71" points="1.949,-1.796 2.349,-5.206 4.094,-2.643 5.345,-0.338 3.41,0.838 1.949,0.273 			
				"/>
			<polygon opacity="0.6" points="1.949,-1.796 3.362,-1.091 4.094,-2.643 5.345,-0.338 3.41,0.838 1.949,0.273 			"/>
			<polygon opacity="0.2" fill="#FFFFFF" points="1.949,-1.796 3.362,-1.091 3.41,0.838 1.949,0.273 			"/>
		</g>
		<g>
			<polygon opacity="0.8" points="-5.906,-5.324 -4.077,-6.263 -2.628,-5.488 -0.27,-4.76 -0.883,-2.925 0.367,-0.62 -1.566,0.556 
				-3.028,-0.009 -3.547,0.556 -4.798,1.237 -7.911,-0.056 -7.769,-1.984 -8.618,-3.724 -7.604,-5.183 			"/>
			<polygon opacity="0.3" fill="#FFFFFF" points="-4.751,-1.818 -7.769,-1.984 -8.618,-3.724 			"/>
			<polygon opacity="0.8" points="-5.906,-5.324 -4.077,-6.263 -2.628,-5.488 -5.364,-3.983 -8.618,-3.724 -7.604,-5.183 			"/>
			<polygon opacity="0.8" points="-2.628,-5.488 -0.27,-4.76 -0.883,-2.925 			"/>
			<polygon opacity="0.2" fill="#FFFFFF" points="-3.028,-0.009 -3.547,0.556 -4.798,1.237 -7.911,-0.056 -7.769,-1.984 
				-4.704,-1.818 			"/>
			<polygon opacity="0.7" points="-7.911,-0.056 -7.769,-1.984 -4.704,-1.818 			"/>
			<polygon opacity="0.7" points="-3.028,-0.009 -3.547,0.556 -4.798,1.237 -4.704,-1.818 			"/>
			<polygon opacity="0.1" fill="#6D6E71" points="-3.028,-2.079 -2.628,-5.488 -0.883,-2.925 0.367,-0.62 -1.566,0.556 
				-3.028,-0.009 			"/>
			<polygon opacity="0.6" points="-3.028,-2.079 -1.613,-1.372 -0.883,-2.925 0.367,-0.62 -1.566,0.556 -3.028,-0.009 			"/>
			<polygon opacity="0.2" fill="#FFFFFF" points="-3.028,-2.079 -1.613,-1.372 -1.566,0.556 -3.028,-0.009 			"/>
		</g>
	</g>
	<g>
		<path fill="#C1A265" d="M13.923-5.84L4.475,6.585C4.213,7.154,3.807,7.52,3.346,7.52c-0.46,0-0.867-0.365-1.128-0.935
			L-7.653-5.839c-0.189-0.234-0.288-0.48-0.288-0.732c0-1.784,4.958-3.229,11.076-3.229c6.116,0,11.074,1.444,11.074,3.229
			C14.209-6.319,14.11-6.075,13.923-5.84z"/>
		<path opacity="0.3" fill="#EFD7AB" d="M3.346,7.52c-0.46,0-0.867-0.365-1.128-0.935L-7.653-5.839
			c-0.189-0.234-0.288-0.48-0.288-0.732c0-1.784,4.958-3.229,11.076-3.229C9.251-9.8,3.807,7.52,3.346,7.52z"/>
	</g>
	<g>
		<polygon fill="#FFF200" points="-1.923,-7.615 -1.805,0.834 -4.878,0.834 		"/>
		<polyline fill="#FFF200" points="1.167,-1.711 -1.786,6.738 -1.904,-1.711 		"/>
	</g>
	<path id="bagcoal-clicker_1_" opacity="0.02" fill="#FFFFFF" d="M20-0.121c0-11.045-8.955-20-20-20c-11.046,0-20,8.955-20,20
		s8.955,20,20,20C11.045,19.879,20,10.924,20-0.121z"/>
</symbol>
<symbol  id="bagasse_x5F_only" viewBox="-20 -20.121 40 40">
	<g>
		<path fill="#C1A265" d="M14.623-6.37L1.815,10.473c-0.351,0.77-0.905,1.265-1.529,1.265c-0.623,0-1.176-0.495-1.529-1.265
			l-13.38-16.841c-0.254-0.318-0.389-0.651-0.389-0.993c0-2.416,6.721-4.376,15.011-4.376c8.292,0,15.012,1.96,15.012,4.376
			C15.012-7.021,14.876-6.688,14.623-6.37z"/>
		<path opacity="0.3" fill="#EFD7AB" d="M0.286,11.737c-0.623,0-1.176-0.495-1.529-1.265l-13.38-16.841
			c-0.254-0.318-0.389-0.651-0.389-0.993c0-2.416,6.721-4.376,15.011-4.376C8.291-11.737,0.91,11.737,0.286,11.737z"/>
	</g>
	<g>
		<polygon fill="#FFF200" points="0.729,-10.229 0.889,1.225 -3.276,1.225 		"/>
		<polyline fill="#FFF200" points="4.917,-2.225 0.914,9.227 0.753,-2.225 		"/>
	</g>
	<path id="bagasse-clicker_1_" opacity="0.02" fill="#FFFFFF" d="M20-0.121c0-11.045-8.955-20-20-20c-11.046,0-20,8.955-20,20
		s8.955,20,20,20C11.045,19.879,20,10.924,20-0.121z"/>
</symbol>
<symbol  id="barrel" viewBox="-9.03 -15.142 18.061 30.283">
	<g>
		<path fill="#5B3E35" d="M9.03,10.109C9.03,8.393,4.988,7,0.001,7C-4.988,7-9.03,8.393-9.03,10.109s4.042,3.108,9.031,3.108
			C4.988,13.218,9.03,11.826,9.03,10.109z"/>
		<path fill="#5B3E35" d="M9.03-10.109c0-1.717-4.042-3.109-9.029-3.109c-4.989,0-9.031,1.393-9.031,3.109S-4.988-7,0.001-7
			C4.988-7,9.03-8.393,9.03-10.109z"/>
		<polygon fill="#5B3E35" points="8.48,-10.109 -8.48,-10.109 -8.48,9.962 8.48,9.962 		"/>
		<path fill="#5B3E35" d="M9.03-0.086c0-1.715-4.042-3.107-9.029-3.107c-4.989,0-9.031,1.393-9.031,3.107
			c0,1.719,4.042,3.11,9.031,3.11C4.988,3.024,9.03,1.633,9.03-0.086z"/>
		<path opacity="0.6" fill="#5B5C5C" d="M-0.126-1.988c-0.221,0.002-0.522-0.002-0.89,0.004v9.682
			c0.324-0.012,0.662-0.018,1.017-0.021c7.846-0.045,8.227,2.285,8.227,2.285S5.815,8.133,0.001,8.186
			c-1.164,0.009-4.599-0.133-8.144,1.776c0,0,0.135-1.237,3.447-1.892v-9.623c-1.117,0.261-2.34,0.676-3.574,1.342
			c0,0,0.242-2.24,8.144-2.285C7.719-2.541,8.1-0.211,8.1-0.211S5.688-2.04-0.126-1.988z"/>
		<path opacity="0.6" fill="#5B5C5C" d="M0.016,12.587c-6.688,0.029-7.013-1.48-7.013-1.48s2.056,1.186,7.013,1.151
			c0.99-0.007,3.92,0.086,6.938-1.151C6.954,11.106,6.748,12.559,0.016,12.587z"/>
		<path fill="#5B5C5C" d="M1.76,9.518c0-0.34-0.798-0.614-1.782-0.614c-0.983,0-1.78,0.274-1.78,0.614
			c0,0.338,0.797,0.613,1.78,0.613C0.962,10.131,1.76,9.855,1.76,9.518z"/>
		<path opacity="0.6" fill="#5B5C5C" d="M-0.126-11.928c-0.221,0.002-0.522-0.002-0.89,0.004v8.75
			c-1.336,0.051-2.585,0.203-3.68,0.433v-8.753c-1.117,0.261-2.34,0.678-3.574,1.342c0,0,0.138-1.268,3.574-1.914v-0.003h0.012
			c1.129-0.212,2.609-0.354,4.558-0.366C7.719-12.48,8.1-10.152,8.1-10.152S5.688-11.98-0.126-11.928z"/>
	</g>
	<g>
		<polygon fill="#FFF200" points="-0.191,-10.109 -0.006,3.18 -4.824,3.18 		"/>
		<polyline fill="#FFF200" points="4.655,-0.822 0.021,12.467 -0.162,-0.822 		"/>
	</g>
	<path id="barrel-clicker_3_" opacity="0.02" fill="#FFFFFF" d="M9.03,0c0-8.362-4.043-15.142-9.03-15.142S-9.03-8.362-9.03,0
		S-4.987,15.142,0,15.142S9.03,8.362,9.03,0z"/>
</symbol>
<symbol  id="coal_x5F_only" viewBox="-20.139 -20.254 40 40">
	<g>
		<g>
			<polygon opacity="0.8" points="-11.963,-9.193 -8.978,-10.729 -6.616,-9.46 -2.772,-8.268 -3.772,-5.271 -1.734,-1.501 
				-4.886,0.421 -7.271,-0.503 -8.116,0.421 -10.153,1.536 -15.229,-0.58 -14.999,-3.732 -16.381,-6.577 -14.729,-8.959 			"/>
			<polygon opacity="0.3" fill="#FFFFFF" points="-10.076,-3.461 -14.999,-3.732 -16.381,-6.577 			"/>
			<polygon opacity="0.8" points="-11.963,-9.193 -8.978,-10.729 -6.616,-9.46 -11.075,-7 -16.381,-6.577 -14.729,-8.959 			"/>
			<polygon opacity="0.8" points="-6.616,-9.46 -2.772,-8.268 -3.772,-5.271 			"/>
			<polygon opacity="0.2" fill="#FFFFFF" points="-7.271,-0.503 -8.116,0.421 -10.153,1.536 -15.229,-0.58 -14.999,-3.732 
				-9.999,-3.461 			"/>
			<polygon opacity="0.7" points="-15.229,-0.58 -14.999,-3.732 -9.999,-3.461 			"/>
			<polygon opacity="0.7" points="-7.271,-0.503 -8.116,0.421 -10.153,1.536 -9.999,-3.461 			"/>
			<polygon opacity="0.1" fill="#6D6E71" points="-7.271,-3.884 -6.616,-9.46 -3.772,-5.271 -1.734,-1.501 -4.886,0.421 
				-7.271,-0.503 			"/>
			<polygon opacity="0.6" points="-7.271,-3.884 -4.964,-2.733 -3.772,-5.271 -1.734,-1.501 -4.886,0.421 -7.271,-0.503 			"/>
			<polygon opacity="0.2" fill="#FFFFFF" points="-7.271,-3.884 -4.964,-2.733 -4.886,0.421 -7.271,-0.503 			"/>
		</g>
		<g>
			<polygon opacity="0.8" points="-10.173,-9.325 -7.189,-10.863 -4.829,-9.595 -0.984,-8.403 -1.984,-5.405 0.054,-1.636 
				-3.099,0.284 -5.484,-0.636 -6.33,0.284 -8.365,1.399 -13.441,-0.715 -13.211,-3.865 -14.593,-6.712 -12.94,-9.097 			"/>
			<polygon opacity="0.3" fill="#FFFFFF" points="-8.287,-3.597 -13.211,-3.865 -14.593,-6.712 			"/>
			<polygon opacity="0.8" points="-10.173,-9.325 -7.189,-10.863 -4.829,-9.595 -9.289,-7.135 -14.593,-6.712 -12.94,-9.097 			"/>
			<polygon opacity="0.8" points="-4.829,-9.595 -0.984,-8.403 -1.984,-5.405 			"/>
			<polygon opacity="0.2" fill="#FFFFFF" points="-5.484,-0.636 -6.33,0.284 -8.365,1.399 -13.441,-0.715 -13.211,-3.865 
				-8.213,-3.597 			"/>
			<polygon opacity="0.7" points="-13.441,-0.715 -13.211,-3.865 -8.213,-3.597 			"/>
			<polygon opacity="0.7" points="-5.484,-0.636 -6.33,0.284 -8.365,1.399 -8.213,-3.597 			"/>
			<polygon opacity="0.1" fill="#6D6E71" points="-5.484,-4.02 -4.829,-9.595 -1.984,-5.405 0.054,-1.636 -3.099,0.284 
				-5.484,-0.636 			"/>
			<polygon opacity="0.6" points="-5.484,-4.02 -3.176,-2.866 -1.984,-5.405 0.054,-1.636 -3.099,0.284 -5.484,-0.636 			"/>
			<polygon opacity="0.2" fill="#FFFFFF" points="-5.484,-4.02 -3.176,-2.866 -3.099,0.284 -5.484,-0.636 			"/>
		</g>
		<g>
			<polygon opacity="0.8" points="-5.675,-7.019 -2.693,-8.556 -0.33,-7.288 3.513,-6.096 2.513,-3.096 4.552,0.668 1.399,2.591 
				-0.984,1.669 -1.831,2.591 -3.868,3.708 -8.942,1.592 -8.711,-1.56 -10.097,-4.404 -8.444,-6.789 			"/>
			<polygon opacity="0.3" fill="#FFFFFF" points="-3.79,-1.292 -8.711,-1.56 -10.097,-4.404 			"/>
			<polygon opacity="0.8" points="-5.675,-7.019 -2.693,-8.556 -0.33,-7.288 -4.791,-4.827 -10.097,-4.404 -8.444,-6.789 			"/>
			<polygon opacity="0.8" points="-0.33,-7.288 3.513,-6.096 2.513,-3.096 			"/>
			<polygon opacity="0.2" fill="#FFFFFF" points="-0.984,1.669 -1.831,2.591 -3.868,3.708 -8.942,1.592 -8.711,-1.56 -3.714,-1.292 
							"/>
			<polygon opacity="0.7" points="-8.942,1.592 -8.711,-1.56 -3.714,-1.292 			"/>
			<polygon opacity="0.7" points="-0.984,1.669 -1.831,2.591 -3.868,3.708 -3.714,-1.292 			"/>
			<polygon opacity="0.1" fill="#6D6E71" points="-0.984,-1.714 -0.33,-7.288 2.513,-3.096 4.552,0.668 1.399,2.591 -0.984,1.669 
							"/>
			<polygon opacity="0.6" points="-0.984,-1.714 1.322,-0.559 2.513,-3.096 4.552,0.668 1.399,2.591 -0.984,1.669 			"/>
			<polygon opacity="0.2" fill="#FFFFFF" points="-0.984,-1.714 1.322,-0.559 1.399,2.591 -0.984,1.669 			"/>
		</g>
		<g>
			<polygon opacity="0.8" points="-2.317,-2.485 0.665,-4.02 3.026,-2.754 6.872,-1.56 5.872,1.438 7.91,5.206 4.756,7.127 
				2.374,6.206 1.526,7.127 -0.509,8.241 -5.586,6.129 -5.354,2.977 -6.738,0.131 -5.086,-2.255 			"/>
			<polygon opacity="0.3" fill="#FFFFFF" points="-0.435,3.245 -5.354,2.977 -6.738,0.131 			"/>
			<polygon opacity="0.8" points="-2.317,-2.485 0.665,-4.02 3.026,-2.754 -1.434,-0.293 -6.738,0.131 -5.086,-2.255 			"/>
			<polygon opacity="0.8" points="3.026,-2.754 6.872,-1.56 5.872,1.438 			"/>
			<polygon opacity="0.2" fill="#FFFFFF" points="2.374,6.206 1.526,7.127 -0.509,8.241 -5.586,6.129 -5.354,2.977 -0.357,3.245 			
				"/>
			<polygon opacity="0.7" points="-5.586,6.129 -5.354,2.977 -0.357,3.245 			"/>
			<polygon opacity="0.7" points="2.374,6.206 1.526,7.127 -0.509,8.241 -0.357,3.245 			"/>
			<polygon opacity="0.1" fill="#6D6E71" points="2.374,2.822 3.026,-2.754 5.872,1.438 7.91,5.206 4.756,7.127 2.374,6.206 			"/>
			<polygon opacity="0.6" points="2.374,2.822 4.679,3.974 5.872,1.438 7.91,5.206 4.756,7.127 2.374,6.206 			"/>
			<polygon opacity="0.2" fill="#FFFFFF" points="2.374,2.822 4.679,3.974 4.756,7.127 2.374,6.206 			"/>
		</g>
		<g>
			<polygon opacity="0.8" points="-2.503,2.036 0.478,0.497 2.841,1.765 6.686,2.957 5.687,5.956 7.723,9.724 4.572,11.645 
				2.188,10.724 1.342,11.645 -0.696,12.761 -5.771,10.646 -5.541,7.495 -6.924,4.649 -5.272,2.266 			"/>
			<polygon opacity="0.3" fill="#FFFFFF" points="-0.619,7.763 -5.541,7.495 -6.924,4.649 			"/>
			<polygon opacity="0.8" points="-2.503,2.036 0.478,0.497 2.841,1.765 -1.619,4.224 -6.924,4.649 -5.272,2.266 			"/>
			<polygon opacity="0.8" points="2.841,1.765 6.686,2.957 5.687,5.956 			"/>
			<polygon opacity="0.2" fill="#FFFFFF" points="2.188,10.724 1.342,11.645 -0.696,12.761 -5.771,10.646 -5.541,7.495 
				-0.541,7.763 			"/>
			<polygon opacity="0.7" points="-5.771,10.646 -5.541,7.495 -0.541,7.763 			"/>
			<polygon opacity="0.7" points="2.188,10.724 1.342,11.645 -0.696,12.761 -0.541,7.763 			"/>
			<polygon opacity="0.1" fill="#6D6E71" points="2.188,7.34 2.841,1.765 5.687,5.956 7.723,9.724 4.572,11.645 2.188,10.724 			"/>
			<polygon opacity="0.6" points="2.188,7.34 4.493,8.494 5.687,5.956 7.723,9.724 4.572,11.645 2.188,10.724 			"/>
			<polygon opacity="0.2" fill="#FFFFFF" points="2.188,7.34 4.493,8.494 4.572,11.645 2.188,10.724 			"/>
		</g>
		<g>
			<polygon opacity="0.8" points="-7.598,-4.097 -4.615,-5.635 -2.253,-4.367 1.591,-3.174 0.593,-0.178 2.63,3.592 -0.521,5.516 
				-2.907,4.59 -3.753,5.516 -5.79,6.628 -10.865,4.514 -10.634,1.363 -12.019,-1.484 -10.364,-3.865 			"/>
			<polygon opacity="0.3" fill="#FFFFFF" points="-5.714,1.631 -10.634,1.363 -12.019,-1.484 			"/>
			<polygon opacity="0.8" points="-7.598,-4.097 -4.615,-5.635 -2.253,-4.367 -6.713,-1.906 -12.019,-1.484 -10.364,-3.865 			"/>
			<polygon opacity="0.8" points="-2.253,-4.367 1.591,-3.174 0.593,-0.178 			"/>
			<polygon opacity="0.2" fill="#FFFFFF" points="-2.907,4.59 -3.753,5.516 -5.79,6.628 -10.865,4.514 -10.634,1.363 -5.636,1.631 
							"/>
			<polygon opacity="0.7" points="-10.865,4.514 -10.634,1.363 -5.636,1.631 			"/>
			<polygon opacity="0.7" points="-2.907,4.59 -3.753,5.516 -5.79,6.628 -5.636,1.631 			"/>
			<polygon opacity="0.1" fill="#6D6E71" points="-2.907,1.208 -2.253,-4.367 0.593,-0.178 2.63,3.592 -0.521,5.516 -2.907,4.59 			
				"/>
			<polygon opacity="0.6" points="-2.907,1.208 -0.601,2.361 0.593,-0.178 2.63,3.592 -0.521,5.516 -2.907,4.59 			"/>
			<polygon opacity="0.2" fill="#FFFFFF" points="-2.907,1.208 -0.601,2.361 -0.521,5.516 -2.907,4.59 			"/>
		</g>
		<g>
			<polygon opacity="0.8" points="3.071,-4.174 6.052,-5.711 8.414,-4.442 12.261,-3.251 11.26,-0.254 13.298,3.517 10.145,5.436 
				7.761,4.514 6.915,5.436 4.878,6.552 -0.195,4.438 0.034,1.285 -1.351,-1.56 0.304,-3.943 			"/>
			<polygon opacity="0.3" fill="#FFFFFF" points="4.955,1.556 0.034,1.285 -1.351,-1.56 			"/>
			<polygon opacity="0.8" points="3.071,-4.174 6.052,-5.711 8.414,-4.442 3.955,-1.981 -1.351,-1.56 0.304,-3.943 			"/>
			<polygon opacity="0.8" points="8.414,-4.442 12.261,-3.251 11.26,-0.254 			"/>
			<polygon opacity="0.2" fill="#FFFFFF" points="7.761,4.514 6.915,5.436 4.878,6.552 -0.195,4.438 0.034,1.285 5.03,1.556 			"/>
			<polygon opacity="0.7" points="-0.195,4.438 0.034,1.285 5.03,1.556 			"/>
			<polygon opacity="0.7" points="7.761,4.514 6.915,5.436 4.878,6.552 5.03,1.556 			"/>
			<polygon opacity="0.1" fill="#6D6E71" points="7.761,1.13 8.414,-4.442 11.26,-0.254 13.298,3.517 10.145,5.436 7.761,4.514 			
				"/>
			<polygon opacity="0.6" points="7.761,1.13 10.068,2.283 11.26,-0.254 13.298,3.517 10.145,5.436 7.761,4.514 			"/>
			<polygon opacity="0.2" fill="#FFFFFF" points="7.761,1.13 10.068,2.283 10.145,5.436 7.761,4.514 			"/>
		</g>
		<g>
			<polygon opacity="0.8" points="5.263,-11.498 8.243,-13.036 10.606,-11.768 14.45,-10.576 13.45,-7.575 15.489,-3.809 
				12.337,-1.886 9.953,-2.809 9.107,-1.886 7.07,-0.77 1.996,-2.885 2.225,-6.037 0.841,-8.884 2.496,-11.267 			"/>
			<polygon opacity="0.3" fill="#FFFFFF" points="7.146,-5.768 2.225,-6.037 0.841,-8.884 			"/>
			<polygon opacity="0.8" points="5.263,-11.498 8.243,-13.036 10.606,-11.768 6.146,-9.307 0.841,-8.884 2.496,-11.267 			"/>
			<polygon opacity="0.8" points="10.606,-11.768 14.45,-10.576 13.45,-7.575 			"/>
			<polygon opacity="0.2" fill="#FFFFFF" points="9.953,-2.809 9.107,-1.886 7.07,-0.77 1.996,-2.885 2.225,-6.037 7.225,-5.768 			
				"/>
			<polygon opacity="0.7" points="1.996,-2.885 2.225,-6.037 7.225,-5.768 			"/>
			<polygon opacity="0.7" points="9.953,-2.809 9.107,-1.886 7.07,-0.77 7.225,-5.768 			"/>
			<polygon opacity="0.1" fill="#6D6E71" points="9.953,-6.192 10.606,-11.768 13.45,-7.575 15.489,-3.809 12.337,-1.886 
				9.953,-2.809 			"/>
			<polygon opacity="0.6" points="9.953,-6.192 12.261,-5.039 13.45,-7.575 15.489,-3.809 12.337,-1.886 9.953,-2.809 			"/>
			<polygon opacity="0.2" fill="#FFFFFF" points="9.953,-6.192 12.261,-5.039 12.337,-1.886 9.953,-2.809 			"/>
		</g>
		<g>
			<polygon opacity="0.8" points="-2.848,-11.96 0.134,-13.495 2.496,-12.229 6.34,-11.037 5.339,-8.037 7.378,-4.269 4.226,-2.346 
				1.842,-3.271 0.995,-2.346 -1.044,-1.233 -6.118,-3.349 -5.887,-6.499 -7.271,-9.345 -5.616,-11.729 			"/>
			<polygon opacity="0.3" fill="#FFFFFF" points="-0.965,-6.23 -5.887,-6.499 -7.271,-9.345 			"/>
			<polygon opacity="0.8" points="-2.848,-11.96 0.134,-13.495 2.496,-12.229 -1.964,-9.768 -7.271,-9.345 -5.616,-11.729 			"/>
			<polygon opacity="0.8" points="2.496,-12.229 6.34,-11.037 5.339,-8.037 			"/>
			<polygon opacity="0.2" fill="#FFFFFF" points="1.842,-3.271 0.995,-2.346 -1.044,-1.233 -6.118,-3.349 -5.887,-6.499 
				-0.889,-6.23 			"/>
			<polygon opacity="0.7" points="-6.118,-3.349 -5.887,-6.499 -0.889,-6.23 			"/>
			<polygon opacity="0.7" points="1.842,-3.271 0.995,-2.346 -1.044,-1.233 -0.889,-6.23 			"/>
			<polygon opacity="0.1" fill="#6D6E71" points="1.842,-6.653 2.496,-12.229 5.339,-8.037 7.378,-4.269 4.226,-2.346 1.842,-3.271 
							"/>
			<polygon opacity="0.6" points="1.842,-6.653 4.147,-5.499 5.339,-8.037 7.378,-4.269 4.226,-2.346 1.842,-3.271 			"/>
			<polygon opacity="0.2" fill="#FFFFFF" points="1.842,-6.653 4.147,-5.499 4.226,-2.346 1.842,-3.271 			"/>
		</g>
	</g>
	<g>
		<polygon fill="#FFF200" points="0.476,-11.986 0.666,1.826 -4.341,1.826 		"/>
		<polyline fill="#FFF200" points="5.512,-2.332 0.695,11.479 0.504,-2.332 		"/>
	</g>
	<path id="coal-clicker_1_" opacity="0.02" fill="#FFFFFF" d="M19.861-0.254c0-11.047-8.954-20-20-20s-20,8.953-20,20
		c0,11.045,8.954,20,20,20S19.861,10.791,19.861-0.254z"/>
</symbol>
<symbol  id="hydro" viewBox="-20 -20.455 40 40">
	<g>
		<path fill="none" stroke="#27AAE1" stroke-width="5" stroke-miterlimit="10" d="M-14.218-9.336c0,1.393,3.256,2.521,7.271,2.521
			c4.02,0,7.274-1.129,7.274-2.521"/>
		<path fill="none" stroke="#27AAE1" stroke-width="5" stroke-miterlimit="10" d="M14.218-7.805c0-1.393-3.256-2.521-7.271-2.521
			s-7.271,1.129-7.271,2.521"/>
	</g>
	<g>
		<path fill="#64A8DC" d="M0.093,9.178h2.359v3.648C2.452,12.826,0.19,12.438,0.093,9.178z"/>
		<path opacity="0.3" fill="#DFF3FB" d="M2.452,12.826c0,0-2.262-0.389-2.359-3.648C0.093,9.178,0.858,11.732,2.452,12.826z"/>
		<path opacity="0.5" fill="#1D3F74" d="M2.452,12.826c0,0-0.852-0.389-0.888-3.648h0.888"/>
	</g>
	<path fill="#64A8DC" d="M9.591,1.377c0-4.582-3.716-8.299-8.299-8.299c-4.584,0-8.299,3.717-8.299,8.299
		c0,4.584,3.715,8.299,8.299,8.299C5.875,9.676,9.591,5.961,9.591,1.377z"/>
	<g>
		<path fill="#64A8DC" d="M2.472-6.424H0.112v-3.648C0.112-10.072,2.374-9.684,2.472-6.424z"/>
		<path opacity="0.3" fill="#DFF3FB" d="M0.112-10.072c0,0,2.262,0.389,2.359,3.648C2.472-6.424,1.706-8.979,0.112-10.072z"/>
		<path opacity="0.5" fill="#1D3F74" d="M0.112-10.072c0,0,0.852,0.389,0.888,3.648H0.112"/>
	</g>
	<g>
		<path fill="#64A8DC" d="M-6.519,0.188v2.359h-3.648C-10.167,2.547-9.778,0.285-6.519,0.188z"/>
		<path opacity="0.3" fill="#DFF3FB" d="M-10.167,2.547c0,0,0.389-2.262,3.648-2.359C-6.519,0.188-9.073,0.953-10.167,2.547z"/>
		<path opacity="0.5" fill="#1D3F74" d="M-10.167,2.547c0,0,0.389-0.852,3.648-0.887v0.887"/>
	</g>
	<g>
		<path fill="#64A8DC" d="M9.083,2.566V0.207h3.648C12.731,0.207,12.343,2.469,9.083,2.566z"/>
		<path opacity="0.3" fill="#DFF3FB" d="M12.731,0.207c0,0-0.389,2.262-3.648,2.359C9.083,2.566,11.638,1.801,12.731,0.207z"/>
		<path opacity="0.5" fill="#1D3F74" d="M12.731,0.207c0,0-0.389,0.852-3.648,0.889V0.207"/>
	</g>
	<g>
		<path fill="#64A8DC" d="M0.093,9.178h2.359v3.648C2.452,12.826,0.19,12.438,0.093,9.178z"/>
		<path opacity="0.3" fill="#DFF3FB" d="M2.452,12.826c0,0-2.262-0.389-2.359-3.648C0.093,9.178,0.858,11.732,2.452,12.826z"/>
		<path opacity="0.5" fill="#1D3F74" d="M2.452,12.826c0,0-0.852-0.389-0.888-3.648h0.888"/>
	</g>
	<g>
		<path fill="#64A8DC" d="M2.472-6.424H0.112v-3.648C0.112-10.072,2.374-9.684,2.472-6.424z"/>
		<path opacity="0.3" fill="#DFF3FB" d="M0.112-10.072c0,0,2.262,0.389,2.359,3.648C2.472-6.424,1.706-8.979,0.112-10.072z"/>
		<path opacity="0.5" fill="#1D3F74" d="M0.112-10.072c0,0,0.852,0.389,0.888,3.648H0.112"/>
	</g>
	<g>
		<path fill="#64A8DC" d="M-3.393-4.98l-1.669,1.67l-2.58-2.582C-7.642-5.893-5.767-7.217-3.393-4.98z"/>
		<path opacity="0.3" fill="#DFF3FB" d="M-7.642-5.893c0,0,1.875-1.324,4.249,0.912C-3.393-4.98-5.741-6.244-7.642-5.893z"/>
		<path opacity="0.5" fill="#1D3F74" d="M-7.642-5.893c0,0,0.877-0.326,3.208,1.953l-0.628,0.629"/>
	</g>
	<g>
		<path fill="#64A8DC" d="M5.957,7.734l1.669-1.668l2.58,2.58C10.206,8.646,8.331,9.971,5.957,7.734z"/>
		<path opacity="0.3" fill="#DFF3FB" d="M10.206,8.646c0,0-1.875,1.324-4.249-0.912C5.957,7.734,8.305,8.998,10.206,8.646z"/>
		<path opacity="0.5" fill="#1D3F74" d="M10.206,8.646c0,0-0.877,0.326-3.209-1.953l0.629-0.627"/>
	</g>
	<g>
		<path fill="#64A8DC" d="M-5.075,6.053l1.668,1.668l-2.58,2.58C-5.987,10.301-7.312,8.426-5.075,6.053z"/>
		<path opacity="0.3" fill="#DFF3FB" d="M-5.987,10.301c0,0-1.324-1.875,0.912-4.248C-5.075,6.053-6.339,8.4-5.987,10.301z"/>
		<path opacity="0.5" fill="#1D3F74" d="M-5.987,10.301c0,0-0.326-0.877,1.953-3.209l0.627,0.629"/>
	</g>
	<g>
		<path fill="#64A8DC" d="M7.64-3.297l-1.669-1.67l2.581-2.58C8.552-7.547,9.876-5.672,7.64-3.297z"/>
		<path opacity="0.3" fill="#DFF3FB" d="M8.552-7.547c0,0,1.324,1.875-0.912,4.25C7.64-3.297,8.903-5.646,8.552-7.547z"/>
		<path opacity="0.5" fill="#1D3F74" d="M8.552-7.547c0,0,0.326,0.877-1.953,3.209L5.971-4.967"/>
	</g>
	<g>
		<path fill="#64A8DC" d="M-4.878-3.553L-6.059-1.51l-3.16-1.824C-9.219-3.334-7.751-5.1-4.878-3.553z"/>
		<path opacity="0.3" fill="#DFF3FB" d="M-9.219-3.334c0,0,1.468-1.766,4.341-0.219C-4.878-3.553-7.474-4.166-9.219-3.334z"/>
		<path opacity="0.5" fill="#1D3F74" d="M-9.219-3.334c0,0,0.763-0.543,3.604,1.055l-0.444,0.77"/>
	</g>
	<g>
		<path fill="#64A8DC" d="M7.442,6.307l1.181-2.043l3.16,1.824C11.783,6.088,10.315,7.854,7.442,6.307z"/>
		<path opacity="0.3" fill="#DFF3FB" d="M11.783,6.088c0,0-1.468,1.766-4.341,0.219C7.442,6.307,10.038,6.922,11.783,6.088z"/>
		<path opacity="0.5" fill="#1D3F74" d="M11.783,6.088c0,0-0.763,0.543-3.604-1.055l0.444-0.77"/>
	</g>
	<g>
		<path fill="#64A8DC" d="M-3.648,7.537l2.044,1.182l-1.825,3.16C-3.43,11.879-5.194,10.41-3.648,7.537z"/>
		<path opacity="0.3" fill="#DFF3FB" d="M-3.43,11.879c0,0-1.765-1.469-0.219-4.342C-3.648,7.537-4.263,10.133-3.43,11.879z"/>
		<path opacity="0.5" fill="#1D3F74" d="M-3.43,11.879c0,0-0.542-0.764,1.056-3.605l0.77,0.445"/>
	</g>
	<g>
		<path fill="#64A8DC" d="M6.213-4.783l-2.044-1.18l1.824-3.16C5.993-9.123,7.759-7.656,6.213-4.783z"/>
		<path opacity="0.3" fill="#DFF3FB" d="M5.993-9.123c0,0,1.766,1.467,0.22,4.34C6.213-4.783,6.827-7.379,5.993-9.123z"/>
		<path opacity="0.5" fill="#1D3F74" d="M5.993-9.123c0,0,0.543,0.762-1.055,3.604l-0.77-0.443"/>
	</g>
	<g>
		<path fill="#64A8DC" d="M-1.588-5.973l-2.044,1.18l-1.824-3.16C-5.456-7.953-3.302-8.748-1.588-5.973z"/>
		<path opacity="0.3" fill="#DFF3FB" d="M-5.456-7.953c0,0,2.154-0.795,3.868,1.98C-1.588-5.973-3.528-7.803-5.456-7.953z"/>
		<path opacity="0.5" fill="#1D3F74" d="M-5.456-7.953c0,0,0.932-0.09,2.594,2.715l-0.77,0.445"/>
	</g>
	<g>
		<path fill="#64A8DC" d="M4.152,8.729l2.044-1.182l1.824,3.16C8.021,10.707,5.866,11.502,4.152,8.729z"/>
		<path opacity="0.3" fill="#DFF3FB" d="M8.021,10.707c0,0-2.154,0.795-3.868-1.979C4.152,8.729,6.093,10.557,8.021,10.707z"/>
		<path opacity="0.5" fill="#1D3F74" d="M8.021,10.707c0,0-0.932,0.09-2.594-2.715l0.77-0.445"/>
	</g>
	<g>
		<path fill="#64A8DC" d="M-6.068,4.248l1.181,2.043l-3.161,1.824C-8.049,8.115-8.843,5.961-6.068,4.248z"/>
		<path opacity="0.3" fill="#DFF3FB" d="M-8.049,8.115c0,0-0.794-2.154,1.98-3.867C-6.068,4.248-7.897,6.188-8.049,8.115z"/>
		<path opacity="0.5" fill="#1D3F74" d="M-8.049,8.115c0,0-0.089-0.932,2.716-2.594l0.445,0.77"/>
	</g>
	<g>
		<path fill="#64A8DC" d="M8.633-1.492L7.452-3.537l3.16-1.824C10.612-5.361,11.407-3.207,8.633-1.492z"/>
		<path opacity="0.3" fill="#DFF3FB" d="M10.612-5.361c0,0,0.795,2.154-1.979,3.869C8.633-1.492,10.462-3.434,10.612-5.361z"/>
		<path opacity="0.5" fill="#1D3F74" d="M10.612-5.361c0,0,0.09,0.932-2.716,2.594l-0.444-0.77"/>
	</g>
	<g>
		<path fill="#64A8DC" d="M0.413-6.465l-2.28,0.609l-0.944-3.523C-2.812-9.379-0.525-9.59,0.413-6.465z"/>
		<path opacity="0.3" fill="#DFF3FB" d="M-2.812-9.379c0,0,2.286-0.211,3.225,2.914C0.413-6.465-0.989-8.734-2.812-9.379z"/>
		<path opacity="0.5" fill="#1D3F74" d="M-2.812-9.379c0,0,0.923,0.154,1.803,3.295l-0.858,0.229"/>
	</g>
	<g>
		<path fill="#64A8DC" d="M2.151,9.221l2.28-0.611l0.944,3.525C5.376,12.135,3.09,12.344,2.151,9.221z"/>
		<path opacity="0.3" fill="#DFF3FB" d="M5.376,12.135c0,0-2.286,0.209-3.225-2.914C2.151,9.221,3.554,11.488,5.376,12.135z"/>
		<path opacity="0.5" fill="#1D3F74" d="M5.376,12.135c0,0-0.924-0.156-1.803-3.295l0.858-0.23"/>
	</g>
	<g>
		<path fill="#64A8DC" d="M-6.561,2.246l0.61,2.281l-3.524,0.943C-9.475,5.471-9.685,3.186-6.561,2.246z"/>
		<path opacity="0.3" fill="#DFF3FB" d="M-9.475,5.471c0,0-0.21-2.285,2.914-3.225C-6.561,2.246-8.829,3.648-9.475,5.471z"/>
		<path opacity="0.5" fill="#1D3F74" d="M-9.475,5.471c0,0,0.155-0.922,3.295-1.803l0.229,0.859"/>
	</g>
	<g>
		<path fill="#64A8DC" d="M9.125,0.508l-0.61-2.279l3.524-0.945C12.039-2.717,12.249-0.43,9.125,0.508z"/>
		<path opacity="0.3" fill="#DFF3FB" d="M12.039-2.717c0,0,0.21,2.287-2.914,3.225C9.125,0.508,11.394-0.895,12.039-2.717z"/>
		<path opacity="0.5" fill="#1D3F74" d="M12.039-2.717c0,0-0.155,0.924-3.295,1.803L8.515-1.771"/>
	</g>
	<g>
		<path fill="#64A8DC" d="M-5.944-1.791l-0.611,2.279l-3.525-0.943C-10.081-0.455-9.118-2.541-5.944-1.791z"/>
		<path opacity="0.3" fill="#DFF3FB" d="M-10.081-0.455c0,0,0.963-2.086,4.137-1.336C-5.944-1.791-8.61-1.713-10.081-0.455z"/>
		<path opacity="0.5" fill="#1D3F74" d="M-10.081-0.455c0,0,0.598-0.723,3.756,0.086l-0.23,0.857"/>
	</g>
	<g>
		<path fill="#64A8DC" d="M8.509,4.545L9.12,2.266l3.524,0.945C12.645,3.211,11.683,5.295,8.509,4.545z"/>
		<path opacity="0.3" fill="#DFF3FB" d="M12.645,3.211c0,0-0.962,2.084-4.136,1.334C8.509,4.545,11.175,4.467,12.645,3.211z"/>
		<path opacity="0.5" fill="#1D3F74" d="M12.645,3.211c0,0-0.597,0.721-3.755-0.088l0.23-0.857"/>
	</g>
	<g>
		<path fill="#64A8DC" d="M-1.886,8.604l2.279,0.611l-0.944,3.525C-0.551,12.74-2.636,11.777-1.886,8.604z"/>
		<path opacity="0.3" fill="#DFF3FB" d="M-0.551,12.74c0,0-2.085-0.963-1.335-4.137C-1.886,8.604-1.807,11.27-0.551,12.74z"/>
		<path opacity="0.5" fill="#1D3F74" d="M-0.551,12.74c0,0-0.722-0.598,0.087-3.756l0.857,0.23"/>
	</g>
	<g>
		<path fill="#64A8DC" d="M4.45-5.85L2.171-6.461l0.944-3.525C3.115-9.986,5.2-9.023,4.45-5.85z"/>
		<path opacity="0.3" fill="#DFF3FB" d="M3.115-9.986c0,0,2.085,0.963,1.335,4.137C4.45-5.85,4.371-8.516,3.115-9.986z"/>
		<path opacity="0.5" fill="#1D3F74" d="M3.115-9.986c0,0,0.722,0.598-0.087,3.756l-0.857-0.23"/>
	</g>
	<path opacity="0.5" fill="#1B4074" d="M7.884,1.377c0-3.641-2.951-6.592-6.592-6.592S-5.3-2.264-5.3,1.377s2.951,6.592,6.592,6.592
		S7.884,5.018,7.884,1.377z"/>
	<path fill="#64A8DC" d="M6.731,1.377c0-3.004-2.436-5.439-5.439-5.439s-5.44,2.436-5.44,5.439s2.437,5.439,5.44,5.439
		S6.731,4.381,6.731,1.377z"/>
	<g>
		<polygon fill="#FFF200" points="1.175,-8.209 1.327,2.744 -2.645,2.744 		"/>
		<polyline fill="#FFF200" points="5.17,-0.555 1.351,10.398 1.198,-0.555 		"/>
	</g>
	<path id="hydro-clicker_1_" opacity="0.02" fill="#FFFFFF" d="M20-0.455c0-11.045-8.955-20-20-20c-11.046,0-20,8.955-20,20
		s8.955,20,20,20C11.045,19.545,20,10.59,20-0.455z"/>
</symbol>
<symbol  id="pv" viewBox="-20.021 -19.688 40 40">
	<g>
		<polygon fill="#FFFFFF" stroke="#000000" stroke-miterlimit="10" points="-8.853,-2.403 12.408,-2.148 8.284,-12.82 
			-12.976,-13.076 		"/>
		
			<linearGradient id="SVGID_1_" gradientUnits="userSpaceOnUse" x1="27138.4473" y1="-36795.2852" x2="27154.334" y2="-36795.2852" gradientTransform="matrix(-0.5944 -0.0071 -0.1134 -0.2936 11969.1074 -10615.3018)">
			<stop  offset="0.0798" style="stop-color:#280033"/>
			<stop  offset="0.2765" style="stop-color:#632C77"/>
			<stop  offset="0.3988" style="stop-color:#7867AE"/>
			<stop  offset="0.8065" style="stop-color:#280033"/>
		</linearGradient>
		<polygon fill="url(#SVGID_1_)" stroke="#000000" stroke-miterlimit="10" points="2.079,-2.614 11.522,-2.501 9.676,-7.278 
			0.233,-7.392 		"/>
		
			<linearGradient id="SVGID_2_" gradientUnits="userSpaceOnUse" x1="27155.8926" y1="-36795.2812" x2="27171.7793" y2="-36795.2812" gradientTransform="matrix(-0.5944 -0.0071 -0.1134 -0.2936 11969.1074 -10615.3018)">
			<stop  offset="0.0798" style="stop-color:#280033"/>
			<stop  offset="0.2765" style="stop-color:#632C77"/>
			<stop  offset="0.3988" style="stop-color:#7867AE"/>
			<stop  offset="0.8065" style="stop-color:#280033"/>
		</linearGradient>
		<polygon fill="url(#SVGID_2_)" stroke="#000000" stroke-miterlimit="10" points="-8.29,-2.738 1.152,-2.625 -0.694,-7.403 
			-10.136,-7.517 		"/>
		
			<linearGradient id="SVGID_3_" gradientUnits="userSpaceOnUse" x1="27138.4492" y1="-36777.6484" x2="27154.3359" y2="-36777.6484" gradientTransform="matrix(-0.5944 -0.0071 -0.1134 -0.2936 11969.1074 -10615.3018)">
			<stop  offset="0.0798" style="stop-color:#280033"/>
			<stop  offset="0.2765" style="stop-color:#632C77"/>
			<stop  offset="0.3988" style="stop-color:#7867AE"/>
			<stop  offset="0.8065" style="stop-color:#280033"/>
		</linearGradient>
		<polygon fill="url(#SVGID_3_)" stroke="#000000" stroke-miterlimit="10" points="0.079,-7.793 9.521,-7.679 7.675,-12.457 
			-1.768,-12.57 		"/>
		
			<linearGradient id="SVGID_4_" gradientUnits="userSpaceOnUse" x1="27155.8945" y1="-36777.6445" x2="27171.7812" y2="-36777.6445" gradientTransform="matrix(-0.5944 -0.0071 -0.1134 -0.2936 11969.1074 -10615.3018)">
			<stop  offset="0.0798" style="stop-color:#280033"/>
			<stop  offset="0.2765" style="stop-color:#632C77"/>
			<stop  offset="0.3988" style="stop-color:#7867AE"/>
			<stop  offset="0.8065" style="stop-color:#280033"/>
		</linearGradient>
		<polygon fill="url(#SVGID_4_)" stroke="#000000" stroke-miterlimit="10" points="-10.291,-7.917 -0.849,-7.804 -2.694,-12.582 
			-12.137,-12.695 		"/>
	</g>
	<path fill="#FEDA00" d="M13.708,7.688c0-3.257-2.64-5.896-5.896-5.896c-3.257,0-5.897,2.64-5.897,5.896s2.64,5.896,5.897,5.896
		C11.068,13.585,13.708,10.945,13.708,7.688z"/>
	<g>
		<polygon fill="#FFF200" points="0.19,-11.996 0.265,-6.575 -1.705,-6.575 		"/>
		<polyline fill="#FFF200" points="2.171,-8.208 0.277,-2.789 0.201,-8.208 		"/>
	</g>
	<line fill="#FCEE1E" stroke="#FCEE1E" stroke-miterlimit="10" x1="1.344" y1="4.771" x2="-3.042" y2="-2.148"/>
	<line fill="#FCEE1E" stroke="#FCEE1E" stroke-miterlimit="10" x1="2.458" y1="2.335" x2="-1.927" y2="-4.585"/>
	<line fill="#FCEE1E" stroke="#FCEE1E" stroke-miterlimit="10" x1="4.365" y1="0.671" x2="-0.021" y2="-6.249"/>
	<line fill="#FCEE1E" stroke="#FCEE1E" stroke-miterlimit="10" x1="6.844" y1="-0.29" x2="2.458" y2="-7.21"/>
	<line fill="#FCEE1E" stroke="#FCEE1E" stroke-miterlimit="10" x1="10.005" y1="0.671" x2="5.619" y2="-6.249"/>
	<path id="pv-clicker_1_" opacity="0.02" fill="#FFFFFF" d="M19.979,0.312c0-11.045-8.955-20-20-20c-11.046,0-20,8.955-20,20
		s8.955,20,20,20C11.024,20.312,19.979,11.356,19.979,0.312z"/>
</symbol>
<symbol  id="trash" viewBox="-20.191 -20.216 40.383 40">
	<path fill="#584118" d="M-14.551,1.411c0,1.279,1.378,2.559,1.87,2.658c0.491,0.098,2.557,1.377,3.049,0.982
		C-9.141,4.659-6.483,9.38-3.927,9.38c2.558,0,3.64,1.77,6.295,0.59c2.656-1.18,4.918-2.754,7.279-4.623s3.935-3.639,6.1-4.721
		c2.163-1.082,2.263-3.836,3.738-4.328c1.475-0.492,0.394-1.869-0.984-2.066c-1.377-0.197-5.017-1.967-6-2.064
		c-0.984-0.1-4.113-2.74-8.835-2.445s-7.673-0.492-10.033,1.082C-7.246-8.61-17.795-7.288-20.139-5.95
		C-20.826-5.558-14.551,0.134-14.551,1.411z"/>
	<polygon fill="#FFFFFF" points="7.456,-0.778 -0.567,2.272 1.128,6.731 9.151,3.681 	"/>
	<polygon fill="#BCBEC0" points="0.591,1.878 -1.615,2.716 0.081,7.175 2.286,6.337 	"/>
	<g>
		<path fill="#565656" d="M-7.701-2.437c0.132-0.723-1.256-1.58-3.1-1.918s-3.444-0.025-3.577,0.695s1.255,1.58,3.099,1.918
			S-7.834-1.716-7.701-2.437z"/>
		<path fill="#584118" d="M-9.54-2.774c0.044-0.24-0.614-0.561-1.468-0.719c-0.855-0.156-1.585-0.088-1.628,0.152
			c-0.045,0.24,0.612,0.562,1.469,0.719C-10.312-2.466-9.584-2.534-9.54-2.774z"/>
	</g>
	<g>
		<path fill="#C6C6C5" d="M2.053-0.173c0.108-0.236-0.866-0.91-2.178-1.506c-1.31-0.594-2.459-0.885-2.566-0.648
			C-2.8-2.089-1.824-1.415-0.514-0.821C0.797-0.226,1.946,0.063,2.053-0.173z"/>
		<polygon fill="#CD3927" points="0.471,-1.407 -0.885,-2.022 -1.273,-1.165 0.082,-0.55 		"/>
		<path fill="#C6C6C5" d="M-1.499-1.786c0.106-0.236-0.072-0.549-0.402-0.699c-0.329-0.148-0.683-0.078-0.79,0.158
			C-2.8-2.089-2.619-1.776-2.29-1.628C-1.961-1.478-1.607-1.55-1.499-1.786z"/>
	</g>
	<g>
		<path fill="#C6C6C5" d="M-2.597-7.411c-0.127-0.227-1.25,0.154-2.507,0.854C-6.362-5.86-7.28-5.11-7.153-4.882
			c0.126,0.227,1.248-0.154,2.506-0.854C-3.389-6.433-2.472-7.183-2.597-7.411z"/>
		<polygon fill="#CD3927" points="-4.531,-6.876 -5.834,-6.153 -5.377,-5.331 -4.075,-6.052 		"/>
		<path fill="#C6C6C5" d="M-6.01-5.519c-0.126-0.227-0.484-0.27-0.8-0.094C-7.126-5.437-7.28-5.11-7.153-4.882
			c0.126,0.227,0.484,0.27,0.801,0.094C-6.037-4.964-5.884-5.29-6.01-5.519z"/>
	</g>
	<g>
		<path fill="#C6C6C5" d="M10.849-7.45c-0.135-0.223-1.242,0.201-2.474,0.943C7.144-5.761,6.254-4.978,6.389-4.755
			S7.631-4.956,8.862-5.7S10.983-7.229,10.849-7.45z"/>
		<polygon fill="#CD3927" points="8.935,-6.845 7.661,-6.075 8.147,-5.269 9.423,-6.038 		"/>
		<path fill="#C6C6C5" d="M7.509-5.433C7.374-5.655,7.015-5.685,6.705-5.497C6.396-5.31,6.254-4.978,6.389-4.755
			s0.495,0.25,0.804,0.064C7.502-4.878,7.644-5.21,7.509-5.433z"/>
	</g>
	<g>
		<path fill="#C6C6C5" d="M-6.883,7.003c0.247,0.082,0.819-0.955,1.278-2.32c0.459-1.363,0.631-2.535,0.384-2.619
			c-0.246-0.082-0.817,0.957-1.276,2.318C-6.956,5.747-7.129,6.921-6.883,7.003z"/>
		<polygon fill="#CD3927" points="-5.813,5.304 -5.339,3.892 -6.23,3.591 -6.705,5.003 		"/>
		<path fill="#C6C6C5" d="M-5.638,3.304c0.247,0.084,0.54-0.127,0.654-0.469c0.116-0.344,0.01-0.688-0.237-0.771
			C-5.467,1.981-5.76,2.19-5.875,2.534C-5.991,2.876-5.885,3.222-5.638,3.304z"/>
	</g>
	<g>
		<path fill="#565656" d="M18.48-3.681c-0.358-0.641-1.974-0.418-3.609,0.498s-2.672,2.178-2.313,2.816
			c0.359,0.639,1.975,0.416,3.609-0.498C17.804-1.78,18.839-3.04,18.48-3.681z"/>
		<path fill="#584118" d="M16.85-2.769c-0.119-0.213-0.831-0.041-1.59,0.383c-0.758,0.426-1.276,0.941-1.157,1.156
			c0.12,0.213,0.831,0.041,1.589-0.383C16.451-2.038,16.969-2.556,16.85-2.769z"/>
	</g>
	<g>
		<path fill="#565656" d="M-5.929,1.446c-0.13-0.721-1.73-1.039-3.575-0.707c-1.844,0.33-3.235,1.184-3.105,1.904
			c0.13,0.723,1.73,1.039,3.575,0.709C-7.19,3.021-5.799,2.169-5.929,1.446z"/>
		<path fill="#584118" d="M-7.768,1.776c-0.044-0.24-0.772-0.312-1.628-0.158c-0.856,0.154-1.515,0.473-1.471,0.715
			c0.042,0.24,0.771,0.311,1.627,0.156C-8.385,2.337-7.726,2.017-7.768,1.776z"/>
	</g>
	<g>
		<polygon fill="#6D6E71" points="2.879,-6.147 1.403,-6.147 1.403,-4.567 2.879,-4.567 		"/>
		<polygon fill="#C6C6C5" points="2.142,-5.358 0.471,-5.358 0.471,-4.046 2.142,-4.046 		"/>
		<polygon fill="#C6C6C5" points="-0.319,-6.147 1.308,-6.147 1.308,-4.702 -0.319,-4.702 		"/>
		<polygon fill="#C6C6C5" points="1.308,-6.147 2.062,-6.147 2.062,-6.876 1.308,-6.876 		"/>
		<polygon fill="#58595B" points="0.494,-5.425 1.403,-5.425 1.403,-7.511 0.494,-7.511 		"/>
	</g>
	<g>
		<polygon fill="#6D6E71" points="-3.83,-1.507 -5.306,-1.507 -5.306,0.071 -3.83,0.071 		"/>
		<polygon fill="#C6C6C5" points="-4.568,-0.718 -6.238,-0.718 -6.238,0.593 -4.568,0.593 		"/>
		<polygon fill="#C6C6C5" points="-7.028,-1.507 -5.401,-1.507 -5.401,-0.063 -7.028,-0.063 		"/>
		<polygon fill="#C6C6C5" points="-5.401,-1.507 -4.647,-1.507 -4.647,-2.237 -5.401,-2.237 		"/>
		<polygon fill="#58595B" points="-6.215,-0.784 -5.306,-0.784 -5.306,-2.872 -6.215,-2.872 		"/>
	</g>
	<g>
		<polygon fill="#6D6E71" points="11.739,-4.415 10.265,-4.415 10.265,-2.835 11.739,-2.835 		"/>
		<polygon fill="#C6C6C5" points="11.002,-3.626 9.332,-3.626 9.332,-2.313 11.002,-2.313 		"/>
		<polygon fill="#C6C6C5" points="8.541,-4.415 10.167,-4.415 10.167,-2.97 8.541,-2.97 		"/>
		<polygon fill="#C6C6C5" points="10.167,-4.415 10.922,-4.415 10.922,-5.144 10.167,-5.144 		"/>
		<polygon fill="#58595B" points="9.354,-3.692 10.265,-3.692 10.265,-5.778 9.354,-5.778 		"/>
	</g>
	<g>
		<polygon fill="#6D6E71" points="-2.231,4.165 -3.706,4.165 -3.706,5.743 -2.231,5.743 		"/>
		<polygon fill="#C6C6C5" points="-2.969,4.954 -4.638,4.954 -4.638,6.265 -2.969,6.265 		"/>
		<polygon fill="#C6C6C5" points="-5.429,4.165 -3.804,4.165 -3.804,5.61 -5.429,5.61 		"/>
		<polygon fill="#C6C6C5" points="-3.804,4.165 -3.049,4.165 -3.049,3.435 -3.804,3.435 		"/>
		<polygon fill="#58595B" points="-4.616,4.888 -3.706,4.888 -3.706,2.8 -4.616,2.8 		"/>
	</g>
	<g>
		<polygon fill="#6D6E71" points="11.408,-0.433 9.933,-0.433 9.933,1.147 11.408,1.147 		"/>
		<polygon fill="#C6C6C5" points="10.671,0.358 9.001,0.358 9.001,1.671 10.671,1.671 		"/>
		<polygon fill="#C6C6C5" points="8.21,-0.433 9.836,-0.433 9.836,1.015 8.21,1.015 		"/>
		<polygon fill="#C6C6C5" points="9.836,-0.433 10.591,-0.433 10.591,-1.161 9.836,-1.161 		"/>
		<polygon fill="#58595B" points="9.022,0.292 9.933,0.292 9.933,-1.794 9.022,-1.794 		"/>
	</g>
	<g>
		<polygon fill="#6D6E71" points="1.207,0.149 -0.268,0.149 -0.268,1.728 1.207,1.728 		"/>
		<polygon fill="#C6C6C5" points="0.47,0.938 -1.201,0.938 -1.201,2.249 0.47,2.249 		"/>
		<polygon fill="#C6C6C5" points="-1.991,0.149 -0.366,0.149 -0.366,1.595 -1.991,1.595 		"/>
		<polygon fill="#C6C6C5" points="-0.366,0.149 0.39,0.149 0.39,-0.581 -0.366,-0.581 		"/>
		<polygon fill="#58595B" points="-1.179,0.872 -0.268,0.872 -0.268,-1.216 -1.179,-1.216 		"/>
	</g>
	<g>
		<polygon fill="#6D6E71" points="-13.744,-5.513 -15.221,-5.513 -15.221,-3.933 -13.744,-3.933 		"/>
		<polygon fill="#C6C6C5" points="-14.482,-4.724 -16.152,-4.724 -16.152,-3.411 -14.482,-3.411 		"/>
		<polygon fill="#C6C6C5" points="-16.943,-5.513 -15.317,-5.513 -15.317,-4.067 -16.943,-4.067 		"/>
		<polygon fill="#C6C6C5" points="-15.317,-5.513 -14.562,-5.513 -14.562,-6.243 -15.317,-6.243 		"/>
		<polygon fill="#58595B" points="-16.13,-4.79 -15.221,-4.79 -15.221,-6.876 -16.13,-6.876 		"/>
	</g>
	<g>
		<polygon fill="#6D6E71" points="10.141,-9.577 8.665,-9.577 8.665,-7.999 10.141,-7.999 		"/>
		<polygon fill="#C6C6C5" points="9.403,-8.788 7.732,-8.788 7.732,-7.476 9.403,-7.476 		"/>
		<polygon fill="#C6C6C5" points="6.942,-9.577 8.568,-9.577 8.568,-8.132 6.942,-8.132 		"/>
		<polygon fill="#C6C6C5" points="8.568,-9.577 9.323,-9.577 9.323,-10.308 8.568,-10.308 		"/>
		<polygon fill="#58595B" points="7.755,-8.854 8.665,-8.854 8.665,-10.942 7.755,-10.942 		"/>
	</g>
	<g>
		<polygon fill="#FFF200" points="-0.351,-11.288 -0.165,2.001 -4.983,2.001 		"/>
		<polyline fill="#FFF200" points="4.496,-2.001 -0.138,11.288 -0.322,-2.001 		"/>
	</g>
	<path id="trash-clicker_1_" opacity="0.02" fill="#FFFFFF" d="M20.012-0.216c0-11.045-8.955-20-20-20c-11.046,0-20,8.955-20,20
		s8.955,20,20,20C11.057,19.784,20.012,10.829,20.012-0.216z"/>
</symbol>
<symbol  id="wind" viewBox="-8.376 -9.282 17.836 18.87">
	<path fill="#E6E7E8" d="M0.891,2.864c0-0.486-0.395-0.879-0.88-0.879c-0.486,0-0.881,0.393-0.881,0.879s0.395,0.879,0.881,0.879
		C0.496,3.743,0.891,3.351,0.891,2.864z"/>
	<polygon fill="#E6E7E8" points="0.577,1.388 -0.547,1.388 -0.964,-9.282 -0.547,-9.282 0.596,-9.282 1.013,-9.282 	"/>
	<polygon fill="#E6E7E8" points="0.479,9.282 -0.474,9.282 -0.826,4.167 -0.474,4.167 0.494,4.167 0.847,4.167 	"/>
	<polygon fill="#E6E7E8" points="5.372,-0.751 5.848,0.073 1.594,2.937 1.418,2.632 0.934,1.794 0.757,1.489 	"/>
	<polygon fill="#E6E7E8" points="-5.848,0.022 -5.372,-0.804 -0.766,1.45 -0.941,1.755 -1.426,2.593 -1.602,2.899 	"/>
	<path fill="#A7A9AC" d="M0.891,2.864c0-0.486-0.395-0.879-0.88-0.879c-0.486,0-0.839,0.785-0.397,0.58
		C0.011,2.382,0.34,2.722,0.294,3.063C0.23,3.544,0.891,3.351,0.891,2.864z"/>
	<polygon fill="#A7A9AC" points="5.258,-0.946 5.439,-0.632 1.077,2.042 1.01,1.925 0.824,1.604 0.757,1.489 	"/>
	<polygon fill="#A7A9AC" points="0.725,9.282 0.407,9.282 0.29,4.167 0.407,4.167 0.729,4.167 0.847,4.167 	"/>
	<polygon fill="#A7A9AC" points="-5.407,-0.741 -5.252,-1.009 -0.766,1.45 -0.823,1.548 -0.979,1.821 -1.037,1.919 	"/>
	<polygon fill="#A7A9AC" points="0.577,1.388 0.151,-9.282 1.013,-9.282 	"/>
	<path id="wind-clicker_3_" opacity="0.02" fill="#FFFFFF" d="M9.46,0.67c0-4.925-3.993-8.918-8.918-8.918
		c-4.926,0-8.918,3.993-8.918,8.918s3.992,8.918,8.918,8.918C5.467,9.588,9.46,5.595,9.46,0.67z"/>
</symbol>
<g id="assets">
	<rect id="sea" fill-rule="evenodd" clip-rule="evenodd" fill="#C3E4ED" width="600" height="800"/>
	
		<rect id="delim_x5F_3" x="448.773" y="585.331" fill-rule="evenodd" clip-rule="evenodd" fill="#F4F8F9" width="151" height="14.816"/>
	
		<rect id="delim_x5F_2" x="276.159" y="671.147" fill-rule="evenodd" clip-rule="evenodd" fill="#F4F8F9" width="14.817" height="128.853"/>
	
		<rect id="delim_x5F_1" x="358.505" y="538.341" transform="matrix(0.4444 0.8958 -0.8958 0.4444 772.0406 24.9421)" fill-rule="evenodd" clip-rule="evenodd" fill="#F4F8F9" width="14.817" height="193.013"/>
	<rect id="legend_x5F_bg" x="4" y="615.997" fill="#FFFFFF" width="251.979" height="179.146"/>
	<text id="power_x5F_legend" transform="matrix(1 0 0 1 15.3086 633.8477)" font-family="'Helvetica-Bold'" font-size="12">Legend - Power Station Energy Sources</text>
	<text id="fossil_x5F_legend" transform="matrix(1 0 0 1 59.6914 667.3652)" font-family="'Helvetica-Bold'" font-size="12">Fossil Fuel</text>
	<text id="hydro_x5F_legend" transform="matrix(1 0 0 1 59.6914 702.3574)" font-family="'Helvetica-Bold'" font-size="12">Hydro</text>
	<text id="coal_x5F_legend" transform="matrix(1 0 0 1 59.6914 737.3535)" font-family="'Helvetica-Bold'" font-size="12">Coal</text>
	<text id="coalbag_x5F_legend" transform="matrix(1 0 0 1 59.6914 774.3301)" font-family="'Helvetica-Bold'" font-size="12">Coal/Bagasse</text>
	<text id="bagasse_x5F_legend" transform="matrix(1 0 0 1 182.7935 667.3652)" font-family="'Helvetica-Bold'" font-size="12">Bagasse</text>
	<text id="landfill_x5F_legend" transform="matrix(1 0 0 1 181.9141 699.416)"><tspan x="0" y="0" font-family="'Helvetica-Bold'" font-size="12">Landfill </tspan><tspan x="0" y="14.4" font-family="'Helvetica-Bold'" font-size="12">Gas</tspan></text>
	<text id="pv_x5F_legend" transform="matrix(1 0 0 1 182.7935 742.3652)" font-family="'Helvetica-Bold'" font-size="12">PV/Sun</text>
	<text id="wind_x5F_legend" transform="matrix(1 0 0 1 182.7935 774.3652)" font-family="'Helvetica-Bold'" font-size="12">Wind</text>
	
		<use xlink:href="#coal_x5F_only"  width="40" height="40" id="coal_x5F_icon_x5F_legend" x="-20.139" y="-20.254" transform="matrix(1 0 0 -1 35.1982 733.8564)" overflow="visible"/>
	
		<use xlink:href="#hydro"  width="40" height="40" id="hydro_x5F_icon_x5F_legend" x="-20" y="-20.455" transform="matrix(1 0 0 -1 34.666 697.8398)" overflow="visible"/>
	
		<use xlink:href="#barrel"  width="18.061" height="30.283" id="barrel_x5F_icon_x5F_legend" x="-9.03" y="-15.142" transform="matrix(1 0 0 -1 34.666 662.665)" overflow="visible"/>
	
		<use xlink:href="#trash"  width="40.383" height="40" id="trash_x5F_icon_x5F_legend" x="-20.191" y="-20.216" transform="matrix(1 0 0 -1 157.5366 699.6416)" overflow="visible"/>
	
		<use xlink:href="#bagasse_x5F_coal"  width="40" height="40" id="bagasse_x5F_coal_x5F_icon_x5F_legend" x="-20" y="-20.121" transform="matrix(1 0 0 -1 34.666 770.7178)" overflow="visible"/>
	
		<use xlink:href="#bagasse_x5F_only"  width="40" height="40" id="bagasse_x5F_only_x5F_icon_x5F_legend" x="-20" y="-20.121" transform="matrix(1 0 0 -1 156.9429 662.8027)" overflow="visible"/>
	
		<use xlink:href="#pv"  width="40" height="40" id="pv_x5F_icon_x5F_legend" x="-20.021" y="-19.688" transform="matrix(1 0 0 -1 157.3926 735.6436)" overflow="visible"/>
	
		<use xlink:href="#wind"  width="17.836" height="18.87" id="wind_x5F_icon_x5F_legend" x="-8.376" y="-9.282" transform="matrix(1 0 0 -1 158.9434 770.0439)" overflow="visible"/>
</g>
<g id="mauritius">
	<g id="mauritius-bounds_1_">
		<path fill-rule="evenodd" clip-rule="evenodd" fill="#FFF2BC" stroke="#9B9478" stroke-miterlimit="10" d="M408.226,155.05
			c2.08-0.08,4.16-0.16,6.24-0.24c0.24,0.16,0.48,0.32,0.721,0.48c0,0.4,0,0.8,0,1.2c-2.273,1.74-9.145,3.181-10.801,5.04
			c3.455-0.447,7.143-2.583,8.881,1.2c0.352,2.146-0.617,3.5,1.439,4.8c2.076,1.453,3.479-0.542,4.561,0.24
			c0.559,1.12,1.119,2.24,1.68,3.36c1.771,0.021,6.426,1.622,6.959,1.44c1.354-0.462,1.818-1.331,3.84-1.44
			c3.361,1.68,6.721,3.36,10.08,5.04c3,0.727,6.195,0.6,8.641,1.2c0.906,2.28,2.727,4.22,3.6,6.24c0.16,1.36,0.32,2.72,0.48,4.08
			c1.445,3.453,7.486,6.401,4.08,12c-4.064,1.501-2.861,5.821-1.439,8.88c-2.076,0.327-3.387,2.13-3.84,4.08
			c-1.84-0.24-3.682-0.48-5.521-0.72c-0.947,1.359-2.004,1.9-4.08,2.16c0.16,0.24,0.32,0.48,0.48,0.72
			c2.166,0.6,3.285,2.041,2.881,4.56c1.77-0.648,3.311-1.211,4.32,0c-1.734,2.327-1.447,4.109-0.24,6.72
			c-2.115,0.544-4.541,0.863-6.48,0.24c0.549,2.368,1.627,2.594,2.879,4.08c0.812-0.348,1.213-0.476,2.16-0.24c0,0.48,0,0.96,0,1.44
			c-0.398,0.4-0.799,0.8-1.199,1.2c0.496,0.441,0.512,0.676,0.721,1.44c0.959,0.48,1.92,0.96,2.879,1.44
			c-0.609-1.256-1.195-2.879-0.719-4.56c0.479,0,0.959,0,1.439,0c0.254,0.508,5.113,4.821,5.76,5.28c0.24-0.4,0.48-0.8,0.721-1.2
			c-0.16-0.72-0.32-1.44-0.48-2.16c0-0.16,0-0.32,0-0.48c-0.4,0-0.801,0-1.201,0c-0.203-1.973-0.949-2.726-0.238-4.32
			c3.201,0.082,8.801,1.652,10.078,3.84c1.188,2.032,0.994,3.523,2.881,4.8c1.039-0.16,2.08-0.32,3.119-0.48
			c0.246,2.942-0.543,7.101,0.24,10.32c1.041,2.16,2.08,4.32,3.121,6.48c0.746,5.355-2.535,7.179,1.439,12.72
			c1.012,1.41,2.777,0.973,4.32,1.92c2.977,1.828,3.338,6.763,6,8.64c1.566,1.105,2.652-0.563,3.84,0.96
			c1.518,2.591,0.771,6.957,2.641,9.12c1.68,1.2,3.359,2.4,5.039,3.6c0.4,1.04,0.801,2.08,1.201,3.12
			c3.58,6.176,9.598,6.656,2.639,15.84c-2.186,0.038-13.607,3.399-14.4,4.561c-0.158,0.8-0.318,1.6-0.479,2.399
			c0.08,0.08,0.16,0.16,0.24,0.24c0.08,0,0.158,0,0.238,0c0.801-0.48,1.602-0.96,2.4-1.44c1.271,0.805,0.867,1.378,1.441,2.88
			c0.479,0,0.959,0,1.439,0c0.16,0.32,0.32,0.641,0.48,0.96c-0.24,0.561-0.48,1.12-0.721,1.681c1.52,1.2,3.039,2.399,4.561,3.6
			c-0.018,3.72-2.201,6.02-5.041,6.96c0,0.16,0,0.32,0,0.48c3.738,1.206,7.34,9.018,2.4,11.52c-0.904-0.175-3.451,1.714-5.041,2.641
			c0.08,0.239,0.16,0.479,0.24,0.72c0.74,0.101,1.379-0.23,1.92,0.24c0.24,0.239,0.48,0.479,0.721,0.72c0,0.479,0,0.96,0,1.439
			c-2.521,1.82-4.244,3.862-3.359,7.921c2.121-0.091,3.609,0.539,5.52,1.68c-0.08,0.16-0.16,0.32-0.24,0.479
			c-1.119,0.16-2.24,0.32-3.359,0.48c0.48,1.76,0.959,3.521,1.439,5.28c-0.91,0.53-1.543,1.712-2.641,1.68
			c-0.398,0.08-0.799,0.16-1.199,0.24c0,1.359,0,2.72,0,4.08c-0.633-0.463-1.623-2.156-2.16-2.4c-0.764-0.348-1.557,0.759-2.641,0
			c-2.473-1.732-3.688-5.224-6.24-6.96c0.441,1.812,1.291,2.486,0.961,4.56c-2.656,1.331-5.941,2.96-6.24,6.721
			c5.363,0.259,10.953,10.141,7.439,16.319c-1.402,2.469-7.238,2.896-9.84,4.08c1.885,5.666-0.438,9.035-1.68,12.961
			c0.08,0.16,0.16,0.32,0.24,0.48c3.23,0.291,14.51,2.471,9.119,7.439c-3.312,2.352-10.912-0.029-14.158-1.439
			c-0.16,0.959-0.32,1.92-0.48,2.879c0.08,0,0.16,0,0.24,0c0.836-0.318,1.273-0.443,2.16-0.24c0,0.16,0,0.32,0,0.48
			c0.348,1.068-0.773,1.242-0.961,2.4c0.24,2.08,0.48,4.16,0.721,6.24c-2.029,7.293-13.684,2.475-19.68,3.84
			c-1.107,5.514-2.27,8.367-5.281,12.24c-1.199,1.039-2.4,2.08-3.6,3.119c-0.32,1.201-0.641,2.4-0.961,3.6
			c-1.279,0.4-2.559,0.801-3.84,1.201c-1.119,1.119-2.24,2.24-3.359,3.359c-2.123,1.057-4.4-0.812-6.721,0.24
			c-2.182,0.99-3.859,2.807-7.68,3.119c-0.32-0.238-0.639-0.479-0.959-0.719c-0.992-4.393-0.369-5.76-4.32-8.641
			c0.16-0.32,0.32-0.641,0.48-0.959c-1.734,0.383-4.852-0.76-6,0.238c-0.08,0.4-0.16,0.801-0.24,1.201
			c0.879,0.959,1.76,1.92,2.639,2.879c-0.93,3.654-0.852,8.818-1.68,12.48c-0.379,1.676-2.365,3.461-2.879,4.801
			c-0.625,1.627,0.658,3.014,0.959,4.08c-0.08,0-0.16,0-0.24,0c-1.734-0.564-3.564-0.744-6-0.721
			c0.533,1.438-0.316,2.27-0.238,2.881c1.039-0.32,2.08-0.641,3.119-0.961c1.838,1.283,1.889,4.182,3.119,5.041
			c0.721,0.24,1.441,0.479,2.16,0.719c0.074-1.584,0.312-1.721,1.201-2.4c1.252,0.926,1.08,0.484,2.879,0.721
			c1.369,2.748,3.879,6.768,4.32,10.08c0.344,2.58-0.633,5.596-0.24,8.16c0.721,0.16,1.441,0.32,2.16,0.48c0-0.08,0-0.16,0-0.24
			c-0.24-0.721-0.48-1.439-0.719-2.16c1.529-0.225,2.012-0.094,3.119,0.48c0.348-1.484,0.527-1.336,1.92-1.201
			c1.523,5.459,4.512,6.676,8.641,9.84c-0.32,4.32-0.641,8.641-0.961,12.961c-0.049,0.129-8.289,8.111-9.119,8.879
			c-0.24-0.078-0.48-0.158-0.721-0.238c-0.721-0.961-1.439-1.92-2.16-2.881c-8.672,1.506-5.805-0.6-11.76-3.6c0,0.08,0,0.16,0,0.24
			c0.721,0.639,1.439,1.279,2.16,1.92c-0.16,0.48-0.32,0.959-0.48,1.439c-0.08,0-0.16,0-0.24,0c-1.359-0.48-2.719-0.959-4.08-1.439
			c0,0.559,0,1.119,0,1.68c0.32,0.4,0.641,0.801,0.961,1.199c1.92-0.121,3.512-0.803,4.799,0c0.16,0,0.32,0,0.48,0
			c-0.24,0.881-0.48,1.762-0.719,2.641c0.16,0.08,0.318,0.16,0.479,0.24c0.879-0.125,0.736-0.146,1.441,0.24
			c0.293,1.402,0.127,1.93-0.48,2.879c-4.281-0.004-4.412,2.633-8.16,3.602c0.08,0.158,0.16,0.318,0.24,0.479
			c0.48,0.4,0.959,0.801,1.439,1.201c-1.695,2.596-5.365,1.152-7.92,2.879c-1.119,2.4-2.24,4.801-3.359,7.201
			c-2.518,3.625-7.881,3.838-10.32,6.719c0,0.08,0,0.16,0,0.24c0.561,0.48,1.119,0.961,1.68,1.439
			c-0.24,0.48-0.48,0.961-0.721,1.441c-4.623,1.146-9.256,4.762-13.439,7.199c-2.719,0.881-5.439,1.76-8.16,2.641
			c-0.32,0.799-0.639,1.6-0.959,2.4c-3.059-0.439-5.318,2.146-7.68,3.6c-1.201-0.08-2.4-0.16-3.602-0.24
			c-4.951,1.314-9.002,4.123-14.16,5.039c-2.09,0.373-3.371-1.201-6.479-0.719c-0.4,0.719-0.801,1.439-1.201,2.16
			c0,0-15.199,5.164-15.6,5.279c0,0.08,0,0.16,0,0.24c-1.92-0.24-3.84-0.48-5.761-0.721c-0.949,2.502-13.853,12.385-16.559,12.961
			c-2.452,0.521-6.019-1.785-9.36-0.721c-3.246,1.035-5.517,4.262-8.88,4.801c-1.76-0.721-3.52-1.441-5.279-2.16
			c-0.561,0.4-1.121,0.799-1.681,1.199c-1.2-0.24-2.399-0.48-3.6-0.719c-1.976,3.408-3.274,6.246-9.36,5.52
			c-1.12-0.16-2.24-0.32-3.359-0.48c-1.164,0.412-2.634,2.248-3.601,2.881l-8.16,1.92c-2.668-1.244-7.306-2.889-8.64-5.521
			c-0.628-1.238-0.13-2.691-0.96-3.6c-0.08,0-0.16,0-0.24,0c0.185,1.963-1.626,4.672-3.12,5.76c-0.08-0.08-0.16-0.16-0.24-0.24
			c-0.311-0.271-0.766-0.811-1.68-0.479c-4.413,1.602-8.725-5.02-12.96-5.521c-0.08,0-0.16,0-0.24,0
			c-5.353,0.092-8.655,4.209-15.6,2.881c-1.481-0.283-12.751-3.762-13.44-4.32c-2.506-2.025-3.706-5.797-6.96-7.199
			c-2.192-0.945-5.486-0.094-7.199-1.439c-1.098-0.939-1.269-3.207-1.2-5.281c-2.677,0.398-4.846,0.949-8.16,0.961
			c-0.013-1.361-0.065-1.535-0.72-2.16c-0.561,0.08-1.12,0.16-1.681,0.24c1.063,13.367-34.674,15.508-34.08,5.039
			c-7.906,0.043-9.883-2.02-13.68-6c-9.143,0.197-10.316-4.184-15.6-7.199c-3.324-1.898-6.749-1.631-9.12-4.32
			c0.399-1.439,0.8-2.881,1.2-4.32c-0.08-0.16-0.16-0.32-0.24-0.48c-0.16,0.16-0.32,0.32-0.48,0.48
			c-0.96,0.721-1.92,1.439-2.88,2.16c-5.2,2.262-13.782,0.229-15.84-3.119c0-1.521,0-3.041,0-4.561
			c-1.84-0.881-3.68-1.76-5.52-2.641c-1.04-2.639-2.08-5.279-3.12-7.92c-2.333-3.439-7.075-4.406-10.56-6.721
			c0.16-0.08,0.32-0.158,0.48-0.238c0.68-0.732,0.967-0.895,2.4-0.961c1.04,0.561,2.08,1.121,3.12,1.68c0-0.08,0-0.16,0-0.24
			c-0.72-1.119-1.44-2.24-2.16-3.359c-3.033,1.914-10.131-0.137-15.12,0.721c-1.594,2.643-3.404,7.814-6.96,8.398
			c-1.541,0.254-1.695-0.674-2.64-0.719c-1.549-0.074-2.442,0.875-3.6-0.721c-2.646-4.943,6.953-21.953,8.64-26.4
			c0.723-1.904,2.098-7.645,3.84-8.398c1.956-0.848,5.075,0.922,5.76,1.68c-1.098,1.938-2.794,2.299-3.6,4.799
			c0.88-0.479,1.76-0.959,2.64-1.439c1.25,1.717,7.387,5.898,10.8,4.08c1.917,0.797,4.463,2.5,6.96,2.641
			c1.398-2.953,5.482-6.381,7.68-8.641c1.386-1.424,1.233-3.545,2.4-5.279c1.92-2,3.84-4,5.76-6
			c3.498-5.354,4.339-11.824,8.88-16.32c-1.586-3.307,0.041-6.352,0.24-10.32c-0.641-0.641-1.28-1.279-1.92-1.92
			c0.399-0.961,0.8-1.92,1.199-2.881c2.628-0.529,4.671-1.1,7.681-1.68c0.986-2.834,3.462-2.09,4.319-4.32
			c-2.521-0.652-5.599-2.256-8.159-2.879c-1.837-0.447-2.38,0.613-3.841,0c0-0.641,0-1.281,0-1.92
			c-2.135-0.072-3.192-0.051-5.04,0.24c0.157-0.844,0.337-0.838-0.239-1.441c-0.681,0.133-0.36-0.328-0.96,0.48
			c-1.347-0.402-1.539-1.111-2.4-1.92c-0.067-3.062-0.122-10.32,1.92-11.52c3.2-0.561,6.4-1.121,9.601-1.68c0-0.08,0-0.16,0-0.24
			c-0.819-1.732-0.377-3.311-0.721-5.52c-2.926-1.99-9.387-3.934-9.6-8.4c2.142-7.529,0.966-17.988,5.28-23.281
			c1.033-1.268,10.397-5.656,12.479-6.959c0.24,0.16,0.48,0.32,0.72,0.48c0.16,1.119,0.32,2.24,0.48,3.359
			c0.16-0.08,0.32-0.16,0.479-0.24c0.24-1.279,0.48-2.561,0.721-3.84c0.319-0.16,0.64-0.32,0.96-0.48
			c-1.845-1.002-2.754-3.092-4.32-3.84c-0.96,0-1.92,0-2.88,0c-0.4-0.719-0.8-1.439-1.2-2.16c-1.973-1.646-4.935-1.262-6.24-3.6
			c-0.399-2.48-0.8-4.96-1.199-7.44c-5.549-18.902-2.631-26.479,6.96-38.88c1.202-1.555,0.385-3.418,1.199-5.521
			c1.36-1.52,2.721-3.04,4.08-4.56c2.084-3.482,1.862-8.308,4.32-11.28c-1.323-2.701-2.901-5.76-2.16-9.12
			c0.8-0.319,1.601-0.64,2.4-0.96c0-0.08,0-0.159,0-0.239s0-0.16,0-0.24c0.319-1.68,0.64-3.36,0.96-5.04
			c0.8-1.44,1.6-2.88,2.399-4.32c0-1.04,0-2.08,0-3.12c1.521-1.92,3.041-3.84,4.561-5.76c1.358-2.269,0.547-3.903,3.12-5.04
			c2.384,0.583,4.633,0.834,6.479,1.44c1.118-3.546,3.356-8.33,3.84-12.24c-0.834-1.5-1.674-2.58-2.64-3.84
			c0.723-1.705,11.145-13.2,12.72-13.92c1.36,0,2.721,0,4.08,0c1.123-0.332,2.333-1.221,3.84-1.68
			c0.328-4.321,6.285-10.251,9.36-11.52c1.76,0,3.521,0,5.28,0c2.72-1.36,5.44-2.72,8.16-4.08c1.6-0.32,3.2-0.64,4.8-0.96
			c3.849-1.852,8.871-5.371,12.96-6.72c2.791-0.92,8.501,3.037,10.08,4.08c-0.24,1.52-0.48,3.041-0.72,4.56c0.079,0,0.159,0,0.239,0
			c4.903-3.431,3.016-3.889,3.12-9.6c2.494-3.26,5.598-7.872,9.601-9.6c1.926,0.902,3.396,0.918,5.279,1.2
			c0.581,2.135-0.346,3.466-0.479,5.76c2.582-0.355,4.287-1.189,6.72-1.68c-1.051-1.771-2.132-3.299-2.16-6
			c-2.548-0.235-4.392-1.662-5.76-3.12c0.08-0.96,0.16-1.92,0.24-2.88c0.893-1.144,2.765-0.91,3.359-1.68
			c1.363-1.763,1.308-4.69,3.601-5.52c0.319-0.08,0.64-0.16,0.96-0.24c1.894,1.654,4.053,2.654,6.96,3.36
			c-0.88-1.28-1.76-2.56-2.641-3.84c-0.72,0.24-1.439,0.48-2.159,0.72c-10.214-11.746-0.841-29.032,12.239-32.64
			c5.268-1.453,7.852,4.133,12.48,1.92c0-0.08,0-0.16,0-0.24c-1.805-0.471-3.872,0.218-5.521-0.72
			c-2.961-1.687-13.369-13.71-11.04-18c2.688-0.897,7.944-3.777,7.2-6.24c-11.631-3.459-0.659-14.137,2.16-18.48
			c1.219-1.877,0.56-3.491,1.2-6.24c0.4-1.72,1.275-1.604,2.16-2.64c-4.678-9.085,12.171-12.958,15.84-15.84
			c4.429-3.479,4.849-10.476,7.92-15.36c3.12-3.28,6.24-6.56,9.36-9.84c4.086-7.24-7.463-10.891-3.841-18.48
			c5.35,0.896,9.732,5.922,17.521,3.36c0.479,0.48,0.96,0.96,1.44,1.44c0.844,3.746-2.586,5.525-2.881,9.36
			c0.16,0.08,0.32,0.16,0.48,0.24c2.421,0.649,4.347-1.019,6-0.72c1.851,0.335,2.85,2.111,6,2.16c0.979-1.247,2.382-1.882,2.88-3.6
			c-0.16,0-0.32,0-0.479,0c-1.188-1.402-3.686-1.681-5.761-2.16c-0.16-0.4-0.319-0.8-0.479-1.2c1.486-3.977,3.723-8.02,6.479-10.8
			c-0.448-1.701-1.302-2.208,0.48-3.12c0.88,0.4,1.76,0.8,2.64,1.2c1.88-1.191,3.317-2.03,4.561-3.84
			c-1.053-1.113-2.553-1.444-2.16-3.36c8.141,0.351,4.784-1.622,9.84-3.36c1.84,0.24,3.679,0.48,5.519,0.72
			c2.818-0.931,3.553-3.888,7.92-4.08c4.619,6.125,16.787,1.39,21.842,6.24c-0.252,2.259-1.285,2.537-2.641,3.6
			c0,0.08,0,0.16,0,0.24c1.973,0.577,2.727,0.41,4.799,0.72c1.297,2.549,2.42,4.724,5.041,6c-0.16,0.56-0.32,1.12-0.48,1.68
			c2.791-0.721,3.225,1.436,5.041,2.16c1.541,0.615,3.141-0.102,5.279,0.24c-0.9-2.243,0.334-3.086,0.48-5.76c0.24,0,0.48,0,0.719,0
			c1.121,0.88,2.24,1.76,3.361,2.64c-0.16,0.56-0.32,1.12-0.48,1.68c0.08,0,0.16,0,0.24,0c1.518-0.597,2.258-0.296,3.6,0.24
			c0.053-1.083,0.17-1.294,0.48-1.92c0.32,0,0.641,0,0.959,0c2.314,2.874,0.869,2.54,1.441,4.8
			c6.906,2.587,12.748,3.935,20.639,5.52c0,0.32,0,0.64,0,0.96c0,0.08,0,0.16,0,0.24c-0.639,0.24-1.279,0.48-1.92,0.72
			c0.363,1.628,0.859,1.858,1.68,2.88c-0.559,0.16-1.119,0.32-1.68,0.48c0.092,2.362,0.689,2.812,0,4.08
			c-1,0.304-1.748,0.548-2.879,0.24c0.24,0.32,0.479,0.64,0.719,0.96c-0.639,0.48-1.279,0.96-1.92,1.44
			c0.16,0.16,0.32,0.32,0.48,0.48c0.801-0.32,1.6-0.64,2.4-0.96c0.24,0.24,0.48,0.48,0.721,0.72c0.398,3.359,0.799,6.72,1.199,10.08
			c-1.119,0.16-2.24,0.32-3.359,0.48c0.398,0.4,0.799,0.8,1.199,1.2c0.875,1.684,2.834,1.248,3.84,2.64c0,0.08,0,0.16,0,0.24
			c1.574,2.459,0.025,3.908-0.24,5.76c0.68,1.684,1.576,2.699,1.439,4.32c-0.078,0.08-0.158,0.16-0.238,0.24
			c-0.881-0.24-1.762-0.48-2.641-0.72c0,0.4,0,0.8,0,1.2c0.48,0.16,0.959,0.32,1.439,0.48c-0.08,1.36-0.16,2.72-0.24,4.08
			c-0.959-0.64-1.92-1.28-2.879-1.92c-0.109,3.402,3.59,1.786,6.24,2.88c-0.08,0.4-0.16,0.8-0.24,1.2
			c-1.361,0.08-2.721,0.16-4.08,0.24c-0.08,0.24-0.16,0.48-0.24,0.72c0.873,1.518,0.051,1.54-0.721,3.12
			c2.574-0.192,3.4,1.081,6,0.48c0,0.08,0,0.16,0,0.24c-0.598,1.885,0.299,1.46,0.721,3.36c-1.055,0.583-2.469,0.807-2.881,2.16
			c0.32,0.48,0.641,0.96,0.961,1.44c0.719,0,1.439,0,2.16,0c-0.191,1.052-0.814,0.577,0.24,1.2c0.16,0.16,0.32,0.32,0.479,0.48
			c0.246-1.148,0.461-1.333,1.201-1.92c0.16,0,0.32,0,0.48,0c0.719,1.12,1.439,2.24,2.16,3.36c-0.961,0.64-1.922,1.28-2.881,1.92
			c0.48,0.64,0.959,1.28,1.439,1.92c-0.32,1.12-0.639,2.24-0.959,3.36c2.09-0.065,3.611,0.217,4.799,0.96
			c-0.332,2.039,2.57,1.839,3.84,3.12C403.894,149.505,407.843,151.052,408.226,155.05z"/>
		<path fill-rule="evenodd" clip-rule="evenodd" fill="#FFF2BC" stroke="#9B9478" stroke-miterlimit="10" d="M399.347,90.97
			c1.664,0.976,0.162,2.241,1.199,4.56c1.52,1.2,3.041,2.4,4.561,3.6c-0.326,0.737-0.371,0.604-0.24,1.44
			c2.461,0.958,10.291,4.845,11.52,6.96c0,0.08,0,0.16,0,0.24c-2.426-0.016-3.666,0.48-5.039,0.24c0.08,0.48,0.158,0.96,0.238,1.44
			c-0.238,0.08-0.479,0.16-0.719,0.24c-1.85-1.396-9.73-3.729-10.561-3.12c-0.08,0.4-0.16,0.8-0.24,1.2
			c-0.4-0.16-0.799-0.32-1.199-0.48c-0.16,0.8-0.32,1.6-0.48,2.4c-0.561,0-1.119,0-1.68,0c-1.182-0.337-2.096-0.552-2.881-1.2
			c0.24-0.8,0.48-1.601,0.721-2.4c-0.721-0.16-1.439-0.32-2.16-0.48c-0.24-1.04-0.48-2.08-0.721-3.12c0.08-0.08,0.16-0.16,0.24-0.24
			c2.217,1.251,4.721-0.117,6.48-0.96c0.801,0.64,1.6,1.28,2.4,1.92c0.346-1.455,0.535-0.936,1.68-1.44
			c-1.6-3.04-3.201-6.081-4.801-9.12C398.226,92.09,398.786,91.53,399.347,90.97z"/>
		<path fill-rule="evenodd" clip-rule="evenodd" fill="#FFF2BC" stroke="#9B9478" stroke-miterlimit="10" d="M148.545,229.451
			c0.32,0,0.641,0,0.96,0c0,0.08,0,0.16,0,0.24C149.186,229.61,148.866,229.53,148.545,229.451z"/>
		<path fill-rule="evenodd" clip-rule="evenodd" fill="#FFF2BC" stroke="#9B9478" stroke-miterlimit="10" d="M150.946,229.451
			c0.16,0,0.32,0,0.48,0C151.266,229.451,151.106,229.451,150.946,229.451z"/>
		<path fill-rule="evenodd" clip-rule="evenodd" fill="#FFF2BC" stroke="#9B9478" stroke-miterlimit="10" d="M170.866,229.451
			c0.16,0,0.32,0,0.48,0C171.186,229.451,171.026,229.451,170.866,229.451z"/>
		<path fill-rule="evenodd" clip-rule="evenodd" fill="#FFF2BC" stroke="#9B9478" stroke-miterlimit="10" d="M171.826,229.451
			c0.16,0,0.32,0,0.48,0C172.146,229.451,171.986,229.451,171.826,229.451z"/>
		<path fill-rule="evenodd" clip-rule="evenodd" fill="#FFF2BC" stroke="#9B9478" stroke-miterlimit="10" d="M501.825,328.331
			c1.117,0.404,5.219,0.549,6.48,1.92c-0.859,1.278-0.877,2.929-0.959,4.56c-1.361,0.24-2.721,0.48-4.08,0.721
			c0.16-0.4,0.318-0.801,0.479-1.2c-1.199,0.08-2.4,0.16-3.6,0.24c0.08-0.24,0.16-0.48,0.24-0.721
			c1.818-0.953,3.193-1.145,4.08-3.12c-2.369,0.106-3.111-0.191-4.08-1.439c0.16-0.24,0.32-0.48,0.48-0.72
			C501.187,328.491,501.505,328.411,501.825,328.331z"/>
		<path fill-rule="evenodd" clip-rule="evenodd" fill="#FFF2BC" stroke="#9B9478" stroke-miterlimit="10" d="M503.745,336.97
			c0.48,0.08,0.961,0.16,1.441,0.24c0.279,1.578,1.031,2.74-0.48,3.36c0.512,2.474,2.244,2.669,2.879,4.8
			c-0.238,0.64-0.479,1.28-0.719,1.92c1.578-0.067,2.359-0.278,3.359,0.24c-0.16,0.239-0.32,0.479-0.48,0.72
			c-4.279,1.133-7.467,2.785-10.318,5.28c-0.24,0-0.48,0-0.721,0c0-0.16,0-0.32,0-0.48c-0.393-0.65-0.584-1.361-0.24-2.16
			c0.984-1.462,1.455-1.371,1.92-3.12c0.48,0.4,0.961,0.801,1.439,1.2c0.08,0,0.16,0,0.24,0c0-0.24,0-0.479,0-0.72
			c-0.666-1.082-1.109-2.794-2.639-3.12c0.398-2,0.799-4,1.199-6c0.561,0.24,1.119,0.48,1.68,0.72
			c-0.244-1.063-0.158-0.964-0.959-1.439c0.08-0.32,0.158-0.641,0.238-0.96C502.306,337.291,503.026,337.13,503.745,336.97z"/>
		<path fill-rule="evenodd" clip-rule="evenodd" fill="#FFF2BC" stroke="#9B9478" stroke-miterlimit="10" d="M56.866,487.45
			c0.8,0.08,1.6,0.16,2.4,0.24c0.08,0.16,0.16,0.32,0.24,0.48c-2.548,4.984-6.032,10.947-9.36,15.6
			c-4.034-2.354,1.242-13.928,2.88-15.359C54.306,488.091,55.586,487.771,56.866,487.45z"/>
		<path fill-rule="evenodd" clip-rule="evenodd" fill="#FFF2BC" stroke="#9B9478" stroke-miterlimit="10" d="M432.706,492.491
			c1.039,0.08,2.08,0.16,3.119,0.238c0.48,0.48,0.961,0.961,1.441,1.441c-0.738,2.785-1.797,3.641-4.561,4.799
			c-0.77-0.389-1.006-0.443-1.439-1.199c-0.67-0.664-0.871-2.121-0.48-3.84C431.425,493.45,432.065,492.97,432.706,492.491z"/>
		<path fill-rule="evenodd" clip-rule="evenodd" fill="#FFF2BC" stroke="#9B9478" stroke-miterlimit="10" d="M411.347,524.651
			c0.318,0,0.639,0,0.959,0c0.24,0.479,0.48,0.959,0.721,1.439c0.104,1.023-0.111,1.605-1.201,2.4
			c-0.398-0.08-0.799-0.16-1.199-0.24c-0.135-1.797-0.254-1.961,0-3.361C410.866,524.81,411.106,524.729,411.347,524.651z"/>
		<path fill-rule="evenodd" clip-rule="evenodd" fill="#FFF2BC" stroke="#9B9478" stroke-miterlimit="10" d="M45.826,543.61
			c0.918,0.688,1.301,1.107,1.44,2.641c-0.56,0.879-1.12,1.76-1.68,2.639c-0.24-0.08-0.48-0.16-0.72-0.238
			c-0.16-0.641-0.32-1.281-0.48-1.922C44.445,545.724,45.007,544.517,45.826,543.61z"/>
	</g>
	<g id="leval">
		
			<use xlink:href="#hydro"  width="40" height="40" id="leval_x5F_btn" x="-20" y="-20.455" transform="matrix(1 0 0 -1 319.708 414.749)" overflow="visible"/>
		<text id="leval_x5F_text" transform="matrix(1 0 0 1 262.5137 414.4941)" font-family="'Helvetica-Bold'" font-size="14">Le Val</text>
	</g>
	<g id="ccecile">
		
			<use xlink:href="#hydro"  width="40" height="40" id="ccecile_x5F_btn" x="-20" y="-20.455" transform="matrix(1 0 0 -1 221.272 556.665)" overflow="visible"/>
		<text id="ccecile_x5F_text" transform="matrix(1 0 0 1 96.5859 558.375)" font-family="'Helvetica-Bold'" font-size="14">Cascade Ccile</text>
	</g>
	<g id="lanicoliere">
		
			<use xlink:href="#hydro"  width="40" height="40" id="lanicoliere_x5F_btn" x="-20" y="-20.455" transform="matrix(1 0 0 -1 324.3955 226.041)" overflow="visible"/>
		<text id="lanicoliere_x5F_text" transform="matrix(1 0 0 1 345.1748 227.2461)" font-family="'Helvetica-Bold'" font-size="14">La Nicolire F.C</text>
	</g>
	<g id="reduit">
		
			<use xlink:href="#hydro"  width="40" height="40" id="reduit_x5F_btn" x="-20" y="-20.455" transform="matrix(1 0 0 -1 192.9604 306.5459)" overflow="visible"/>
		<text id="reduit_x5F_text" transform="matrix(1 0 0 1 210.2407 308.4995)" font-family="'Helvetica-Bold'" font-size="14">A.I.A (Rduit)</text>
	</g>
	<g id="laferme">
		
			<use xlink:href="#hydro"  width="40" height="40" id="laferme_x5F_btn" x="-20" y="-20.455" transform="matrix(1 0 0 -1 127.229 334.7905)" overflow="visible"/>
		<text id="laferme_x5F_text" transform="matrix(1 0 0 1 104.7793 359.5493)" font-family="'Helvetica-Bold'" font-size="14">La Ferme</text>
	</g>
	<g id="magenta">
		
			<use xlink:href="#hydro"  width="40" height="40" id="magenta_x5F_btn" x="-20" y="-20.455" transform="matrix(1 0 0 -1 145.3306 414.4814)" overflow="visible"/>
		<text id="magenta_x5F_text" transform="matrix(1 0 0 1 67.5059 418.2422)" font-family="'Helvetica-Bold'" font-size="14">Magenta</text>
	</g>
	<g id="tfalls">
		
			<use xlink:href="#hydro"  width="40" height="40" id="tfalls_x5F_btn" x="-20" y="-20.455" transform="matrix(1 0 0 -1 171.3374 421.417)" overflow="visible"/>
		<text id="tfalls_x5F_text" transform="matrix(1 0 0 1 152.2769 447.3477)" font-family="'Helvetica-Bold'" font-size="14">Tamarind Falls</text>
	</g>
	<g id="midlands">
		
			<use xlink:href="#hydro"  width="40" height="40" id="midlands_x5F_btn" x="-20" y="-20.455" transform="matrix(1 0 0 -1 266.6729 349.2222)" overflow="visible"/>
		<text id="midlands_x5F_text" transform="matrix(1 0 0 1 190.9121 352.3936)" font-family="'Helvetica-Bold'" font-size="14">Midlands</text>
	</g>
	<g id="ferney">
		
			<use xlink:href="#hydro"  width="40" height="40" id="ferney_x5F_btn" x="-20" y="-20.455" transform="matrix(1 0 0 -1 369.3936 441.4971)" overflow="visible"/>
		<text id="ferney_x5F_text" transform="matrix(1 0 0 1 387.998 450.2676)" font-family="'Helvetica-Bold'" font-size="14">Ferney</text>
	</g>
	<g id="champagne">
		
			<use xlink:href="#hydro"  width="40" height="40" id="champagne_x5F_btn" x="-20" y="-20.455" transform="matrix(1 0 0 -1 379.708 405.415)" overflow="visible"/>
		<text id="champagne_x5F_text" transform="matrix(1 0 0 1 404.0254 411.2637)" font-family="'Helvetica-Bold'" font-size="14">Champagne</text>
	</g>
	<g id="msml_1_">
		
			<use xlink:href="#bagasse_x5F_only"  width="40" height="40" id="msml_x5F_btn" x="-20" y="-20.121" transform="matrix(1 0 0 -1 99.8623 328.4038)" overflow="visible"/>
		<text id="msml_x5F_text" transform="matrix(1 0 0 1 44.3857 335.2466)" font-family="'Helvetica-Bold'" font-size="14">MSML</text>
	</g>
	<g id="oteosa">
		
			<use xlink:href="#coal_x5F_only"  width="40" height="40" id="oteosa_x5F_btn" x="-20.139" y="-20.254" transform="matrix(0.9509 0 0 -0.9509 261.9795 572.8818)" overflow="visible"/>
		<text id="oteosa_x5F_text" transform="matrix(1 0 0 1 234.4546 603.0469)" font-family="'Helvetica-Bold'" font-size="14">OTEOSA</text>
	</g>
	<g id="sotravic">
		
			<use xlink:href="#trash"  width="40.383" height="40" id="sotravic_x5F_btn" x="-20.191" y="-20.216" transform="matrix(1 0 0 -1 326.623 447.0645)" overflow="visible"/>
		<text id="sotravic_x5F_text" transform="matrix(1 0 0 1 262.3901 475.2676)" font-family="'Helvetica-Bold'" font-size="14">Sotravic Ltee</text>
	</g>
	<g id="sarako">
		
			<use xlink:href="#pv"  width="40" height="40" id="sarako_x5F_btn" x="-20.021" y="-19.688" transform="matrix(1 0 0 -1 124.3013 307.5332)" overflow="visible"/>
		<text id="sarako_x5F_text" transform="matrix(1 0 0 1 23.709 294.6675)" font-family="'Helvetica-Bold'" font-size="14">Sarako PVP Co Ltd</text>
	</g>
	<g id="oteolb">
		
			<use xlink:href="#bagasse_x5F_coal"  width="40" height="40" id="oteosa_x5F_btn_1_" x="-20" y="-20.121" transform="matrix(1 0 0 -1 319.9326 558.3662)" overflow="visible"/>
		<text id="oteosa_x5F_text_1_" transform="matrix(1 0 0 1 339.1094 563.3594)" font-family="'Helvetica-Bold'" font-size="14">OTEOLB</text>
	</g>
	<g id="cel">
		
			<use xlink:href="#coal_x5F_only"  width="40" height="40" id="cel_x5F_btn" x="-20.139" y="-20.254" transform="matrix(0.9509 0 0 -0.9509 474.4873 343.271)" overflow="visible"/>
		<text id="cel_x5F_text" transform="matrix(1 0 0 1 369.0654 337.3208)"><tspan x="0" y="0" font-family="'Helvetica-Bold'" font-size="14">Consolidated</tspan><tspan x="0" y="16.8" font-family="'Helvetica-Bold'" font-size="14">Energy Ltd</tspan></text>
	</g>
	<g id="alteo_1_">
		
			<use xlink:href="#bagasse_x5F_coal"  width="40" height="40" id="alteo_x5F_btn" x="-20" y="-20.121" transform="matrix(1 0 0 -1 394.9854 275.2446)" overflow="visible"/>
		<text id="alteo" transform="matrix(1 0 0 1 414.3857 277.3574)" font-family="'Helvetica-Bold'" font-size="14">Alteo Energy Ltd</text>
	</g>
	<g id="terragen">
		
			<use xlink:href="#bagasse_x5F_coal"  width="40" height="40" id="terragen_x5F_btn" x="-20" y="-20.121" transform="matrix(1 0 0 -1 299.0547 141.9502)" overflow="visible"/>
		<text id="terragen_x5F_text_1_" transform="matrix(1 0 0 1 261.979 122.6816)" font-family="'Helvetica-Bold'" font-size="14">Terragen Ltd</text>
	</g>
	<g id="nicolay_2_">
		
			<use xlink:href="#barrel"  width="18.061" height="30.283" id="nicolay_x5F_btn" x="-9.03" y="-15.142" transform="matrix(1 0 0 -1 224.2456 208.4839)" overflow="visible"/>
		<text id="nicolay_x5F_text" transform="matrix(1 0 0 1 220.7212 191.2656)" font-family="'Helvetica-Bold'" font-size="14">Nicolay</text>
	</g>
	<g id="fgeorge">
		
			<use xlink:href="#barrel"  width="18.061" height="30.283" id="fgeorge_x5F_btn" x="-9.03" y="-15.142" transform="matrix(1 0 0 -1 205.5854 214.3853)" overflow="visible"/>
		<text id="fgeorge_x5F_text" transform="matrix(1 0 0 1 113.5859 203.5391)" font-family="'Helvetica-Bold'" font-size="14">Fort George</text>
	</g>
	<g id="fvictoria_1_">
		
			<use xlink:href="#barrel"  width="18.061" height="30.283" id="fvictoria_x5F_btn" x="-9.03" y="-15.142" transform="matrix(1 0 0 -1 187.6606 231.2563)" overflow="visible"/>
		<text id="fvictoria_x5F_text" transform="matrix(1 0 0 1 86.8506 228.0771)" font-family="'Helvetica-Bold'" font-size="14">Fort Victoria</text>
	</g>
	<g id="stlouis">
		
			<use xlink:href="#barrel"  width="18.061" height="30.283" id="stlouis_x5F_btn" x="-9.03" y="-15.142" transform="matrix(1 0 0 -1 165.9941 249.9712)" overflow="visible"/>
		<text id="stlouis_x5F_text" transform="matrix(1 0 0 1 177.7578 267.4453)" font-family="'Helvetica-Bold'" font-size="14">St Louis</text>
	</g>
</g>
<g id="rodrigues">
	<g id="rodrigues-bounds_1_">
		<path fill-rule="evenodd" clip-rule="evenodd" fill="#FFF2BC" stroke="#9A9377" stroke-miterlimit="10" d="M494.775,669.755
			c0.015,0.094,0.031,0.189,0.046,0.283c0.252-0.031,0.503-0.062,0.755-0.094c-0.023-0.375-0.066-0.434,0.141-0.566
			c0.12,0.113,0.028,0.057,0.142,0.096c-0.03,0.154-0.062,0.312-0.093,0.471c0.462,0.021,0.71,0.227,0.943,0.33
			c-0.246,0.223-0.19,0.508-0.379,0.801c-1.091,1.709-1.179,2.545-0.896,5.094c0.314,0.146,0.803,0.377,0.991,0.66
			c0.437,0.662,0.378,2.414,1.32,2.545c0.094-0.029,0.188-0.062,0.282-0.096c-0.047-0.832-0.094-1.664-0.142-2.496
			c0.175-0.191,0.346-0.379,0.52-0.568c0.031-0.629,0.062-1.256,0.094-1.885c0.47-0.324,1.022-0.467,1.651-0.66
			c0-0.252,0-0.504,0-0.754c0.564,0,1.132,0,1.696,0c0.136-0.367,0.131-0.992,0.189-1.463c0.831-0.889,3.992-1.285,5.28-0.518
			c0.983,0.584,1.264,2.215,2.358,2.641c0.69,0,1.383,0,2.075,0c1.061,0.383,1.497,1.773,2.404,2.357
			c0.522,0.334,1.429,0.012,2.121,0.236c0.556,0.176,0.722,0.785,1.132,1.084c0.535,0.188,1.07,0.377,1.604,0.564
			c0.394,0.244,0.536,0.604,0.801,0.992c0.244,0.354,2.159,1.777,2.593,1.934c1.556,0.559,3.681-0.887,4.858-0.191
			c0.655,0.391-0.01,1.713,0.424,2.312c0.742,1.023,3.809,0.641,5.188,0.518c0.076-0.215,0.146-0.277,0.094-0.518
			c0.949-0.156,1.767,0.277,2.216,0.895c-0.016,0.811-0.113,1.326,0.143,1.84c0.377,0.129,0.948,0.236,1.273,0.047
			c0.156-0.982,1.184-1.125,1.98-0.611c1.03,0.662,0.746,2.691,1.885,3.205c0.686,0.309,1.224,0.404,1.839,0.754
			c0.488,0.268,0.975,0.535,1.462,0.803c1.066,0.262,2.3-0.295,3.019,0.188c0.28,2.139,1.979,2.082,1.886,4.197
			c-0.772,0.146-0.936,0.834-0.896,1.791c-2.402-0.02-3.999,0.586-4.433,2.453c0,0.422,0,0.85,0,1.273
			c0,1.543-0.057,2.6-0.755,3.395c-0.251,0-0.503,0-0.755,0c0.032,0.834,0.063,1.668,0.094,2.5c-0.159,0.68-0.784,0.645-1.084,1.131
			c-0.48,0.779,0.162,2.072,0.377,2.83c0.034,0.016,0.063,0.031,0.095,0.047c0.278-0.143,0.355-0.373,0.661-0.52
			c0.486,0.293,0.675,1.113,1.084,1.51c0.696-0.248,0.846-0.82,1.697-0.85c0.961,0.494,0.569,2.168,0.896,3.301
			c0.597,2.072,2.622,3.041,0.047,4.953c0.442,0.736,1.801,2.189,0.754,3.393c-0.454,0.523-1.435,0.445-1.697,1.18
			c-0.38,1.066,0.136,2.332-0.424,3.111c-0.41,0.105-2.134,0.301-2.5,0.52c-0.727,0.436-0.937,1.604-1.743,1.98
			c-0.804,0.141-1.605,0.283-2.406,0.426c-1.504,0.996-1.66,2.994-3.725,3.537c-0.676,0.045-1.351,0.092-2.028,0.139
			c-0.878,0.205-1.271,0.803-1.791,0.99c-0.405,0.15-1.16,0.158-1.415-0.094c-0.031-0.141-0.062-0.283-0.095-0.424
			c-2.807-0.021-2.271,2.59-3.489,4.102c-0.307,0.383-1.064,0.145-1.319,0.613c0,0.346,0,0.691,0,1.037
			c-0.702,0.207-2.928,0.428-3.442,0.756c-0.802,0.508-1.112,1.613-1.98,2.121c-1.188,0.693-2.357,0.955-3.348,1.793
			c-0.71,0.598-1.072,2.289-1.793,2.688c-1.22,0.674-2.324-0.42-3.111-0.613c-1.513-0.373-2.757,1.08-4.243,0.33
			c-1.081-0.545-1.578-1.863-2.548-2.453c-0.393-0.016-0.787-0.031-1.179-0.047c-0.065-0.291-0.433-0.621-0.282-0.988
			c0.207-0.514,1.271-0.639,2.026-0.615c0-0.047,0-0.094,0-0.141c-0.03-0.047-0.062-0.094-0.094-0.141
			c-0.393-0.205-0.785-0.41-1.18-0.613c-0.549,0.016-1.099,0.031-1.649,0.047c-0.076,0.971-1.062,1.861-1.556,2.547
			c-0.478-0.004-0.722,0.119-1.037,0.234c-0.11,0.346-0.221,0.693-0.331,1.037c-0.78,0.068-3.23,0.932-3.536,1.416
			c-0.112,0.311,0.068,0.742-0.048,0.941c-0.354,0.672-1.088,0.447-1.084,1.557c-1.537-0.059-3.128-0.131-4.479-0.283
			c-0.208-0.547-0.609-0.887-0.803-1.32c-0.014-0.66-0.03-1.32-0.046-1.979c-2.285,0.037-6.025,2.631-6.932-0.662
			c-0.347-0.014-0.691-0.031-1.038-0.047c-0.432,0.73-2.367,2.119-3.771,1.793c-0.446-0.104-0.964-0.467-1.651-0.33
			c-0.815,0.16-1.7,0.752-2.923,0.564c-0.688-0.105-0.971-0.543-1.745-0.471c-0.612,0.047-1.226,0.094-1.838,0.141
			c-0.29,0.109-0.337,0.303-0.803,0.33c-1.371-0.727-1.948-0.316-3.347-0.047c-0.86,0.166-1.073-0.494-1.746-0.613
			c-2.278-0.402-3.095,1.332-4.007,2.357c-1.405,0.039-1.244-0.455-1.698-1.32c-0.605,0.014-1.156-0.061-1.508-0.281
			c-0.13-1.08,0.002-1.844-1.321-1.887c-0.616,0.67-1.171,1.613-1.463,2.594c-1.05,0.023-2.046,0.035-2.875-0.283
			c-1.195-0.459-1.207-1.15-2.924-0.566c-0.032,0.189-0.062,0.379-0.095,0.566c-0.756,0.002-0.926,0.359-1.367,0.613
			c-0.456,0.141-0.912,0.283-1.367,0.424c-1.409,0.584-2.382,1.449-4.433,1.461c-0.079,0.174-0.157,0.348-0.235,0.52
			c-0.441-0.016-0.882-0.031-1.32-0.047c0,0.094,0,0.188,0,0.283c0.109,0.219,0.219,0.441,0.329,0.66
			c0.888,0.062,2.424,0.457,2.782,1.084c0.104,0.229,0.013,0.52-0.047,0.709c-0.787,0.26-1.811,0.146-2.782,0.139
			c0.121,2.311,2.314,1.969,2.594,3.727c0.311,1.961-2.11,4.754-1.51,5.66c0.395,0.42,2.677,0.906,3.348,1.412
			c0,0.078,0,0.158,0,0.236c-1.19,0.84-4.553,0.637-6.177,0.283c-0.581-0.189-1.163-0.377-1.744-0.566
			c-0.425,0.096-0.85,0.189-1.274,0.283c-0.65,0.051-1.312-0.574-1.979-0.283c-0.188,0.236-0.378,0.471-0.566,0.707
			c-1.074,0.049-2.39,0.348-3.489,0.049c-1.081-0.295-1.474-0.91-2.876-0.943c-0.519,0.689-1.103,0.965-1.934,1.367
			c0.017,0.482,0.015,0.982-0.141,1.273c-3.115,0.568-2.897-1.855-5.093-2.217c-0.888,1.865,0.823,1.91,0.707,3.254
			c0.243-0.047,0.55-0.156,0.801-0.047c0.111,0.062,0.221,0.125,0.33,0.189c-0.005,0.607,0.044,1.381,0.189,1.838
			c0.633,0.174,1.386,0.354,2.263,0.236c-0.015,0.393-0.03,0.785-0.046,1.178c0.244,0.627,2.388,1.275,1.649,2.264
			c0,0.031,0,0.062,0,0.094c-0.529-0.197-0.678-0.391-1.037-0.707c-0.493-0.436-1.239-0.574-1.886-0.85
			c-0.236-0.172-0.472-0.344-0.707-0.518c-0.504-0.047-1.007-0.094-1.51-0.141c-0.455-0.117-0.658-0.545-0.99-0.709
			c-0.55-0.047-1.101-0.094-1.65-0.141c-0.209-0.979-0.988-0.395-1.604-0.896c-0.298-0.471-0.597-0.943-0.896-1.414
			c-0.377,0.016-0.754,0.031-1.131,0.047c-0.998-0.254-1.681-1.537-2.547-2.027c-0.532-0.301-1.316-0.295-1.933-0.52
			c-0.014-0.451,0.065-1.117-0.142-1.461c-0.395-0.123-0.729-0.297-1.227-0.377c-0.754-0.047-1.508-0.094-2.262-0.141
			c-0.613-0.215-0.854-0.738-1.274-1.133c-0.278-0.264-0.762-0.303-1.132-0.471c0.016-0.156,0.031-0.314,0.048-0.471
			c-1.135,0.006-1.192-0.682-1.698-1.275c-0.251-0.016-0.502-0.031-0.754-0.047c-0.142-0.438-0.451-0.762-0.708-1.084
			c-0.592-0.742-0.921-1.785-1.319-2.689c-0.143-0.172-0.283-0.346-0.425-0.518c-0.209-0.615,0.236-1.49,0.095-2.123
			c-0.285-0.059-0.758-0.205-0.896-0.424c-0.451-0.77,0.635-1.281,0.802-1.934c0.304-1.186-0.228-2.559,0.047-3.865
			c0.11-0.523,0.42-0.947,0.613-1.367c2.774,0.148,3.685-2.488,5.8-2.123c0.094,0.283,0.188,0.566,0.283,0.85
			c0.031,0.676,0.062,1.352,0.095,2.027c1.579,0.127,3.097-1.07,2.687-2.688c-0.531-0.547-1.625-0.662-2.074-1.273
			c-0.273-0.375-0.188-0.816-0.188-1.461c0-1.869,0.475-4.369,2.074-4.576c0.048-0.486,0.027-0.652-0.189-0.941
			c-1.014-0.25-2.889-0.615-3.348,0.424c-0.229,0.518,0.014,1.387-0.236,1.84c-2.434,0.352-3.758,2.238-5.139,3.678
			c-0.303,0.314-0.539,0.84-0.99,0.988c-0.592,0.197-1.306-0.045-1.746-0.141c-0.056-0.492-0.084-1.238-0.282-1.602
			c-0.536-0.223-1.349-0.338-1.934,0c-0.634,0.365-0.96,1.17-1.649,1.555c-1.164,0.65-6.039,0.312-5.045,2.547
			c0.549,0.611,1.1,1.227,1.649,1.838c-0.016,0.316-0.031,0.631-0.047,0.945c-0.095,0.107-0.188,0.219-0.284,0.328
			c-0.251-0.014-0.502-0.031-0.754-0.047c0.014-0.555-0.107-0.836-0.33-1.131c-1.522-0.391-2.938-0.703-4.573-0.943
			c-0.583-0.086-1.918,0.148-2.735,0.141c-0.012-1.426-0.135-3.777-0.707-4.668c-0.734-1.139-2.4-1.457-3.207-2.594
			c0.017-0.943,0.033-1.885,0.047-2.828c0.35,0.002,0.474-0.064,0.708-0.141c0.218-0.875,0.305-1.176,0.802-1.699
			c0.703-0.023,1.473-0.094,2.074,0.143c1.504,0.59,2.91,2.502,4.999,1.178c0.513-1.91-0.889-2.219-0.991-3.959
			c1.433-1.01-0.164-1.975,0.33-3.16c1.079-0.451,1.093-2.254,0.613-3.396c-2.267-0.215-1.568,0.508-2.169,2.074
			c-0.314,0.049-0.629,0.096-0.942,0.143c-0.094-0.609-0.36-1.615-0.236-2.357c0.242-1.447,1.398-3.299-0.236-3.961
			c-0.004-1.178-1.111-3.172-0.754-3.914c0.236-0.234,0.472-0.473,0.707-0.707c1.028-0.48,1.844-0.803,3.537-0.801
			c0.984-1.303,0.271-2.342,2.357-2.736c-0.042,1.008,0.285,1.873,1.132,1.98c1.745-0.566,1.175-4.049,2.641-4.148
			c0.05-0.596,0.819-1.967,1.556-1.18c0.944,1.426,1.024,4.424,3.254,4.479c-0.016-0.598-0.031-1.193-0.047-1.791
			c0.4-1.584,3.767-1.861,5.611-1.227c0.584,0.203,1.007,1.396,1.933,1.133c0.459-0.131,0.839-1.244,1.557-1.463
			c1.374-0.418,3.11,0.199,4.338-0.188c0.53-0.168,1.429-0.658,1.604-1.18c0.212-0.629-0.343-1.254,0.283-1.65
			c0.148-0.105,0.595-0.146,0.802-0.045c0.713,0.312,1.916,1.271,2.216,1.979c0.152,0.359,0.038,0.727,0.188,0.99
			c0.252,0.094,0.504,0.189,0.754,0.283c2.934-1.029-0.234-5.686,3.631-6.271c0.601-0.09,1.135-0.094,1.557,0.189
			c0.135,0.434,0.102,1.164,0.094,1.744c0.535,0.037,1.254,0.137,1.604,0.377c0.255,0.768-0.27,1.451-0.047,2.217
			c0.425,0.234,0.85,0.471,1.273,0.707c1.15,0.477,2.605,0.469,4.148,0.471c0.014-1.559,0.511-1.605,0.756-2.594
			c0.324-1.301-0.676-3.207-1.32-3.865c-0.029-1.305,0.271-1.932,0.66-2.877c0.748,0.096,1.841,0.166,2.405-0.189
			c0.769-0.484,0.94-1.672,1.413-2.451c1.08-1.777,2.617-2.998,5.377-2.264c0.031,0.645,0.062,1.289,0.093,1.934
			c1.879,1.406,4.524-1.859,3.679-3.018c-0.086,0.23-0.133,0.256-0.424,0.283c-0.079-0.047-0.158-0.094-0.236-0.143
			c-0.052-0.217-0.079-0.502,0.047-0.66c0.031-0.031,0.062-0.062,0.095-0.094c0.176-0.117,0.285-0.082,0.472,0
			c-0.339-0.811-0.79-1.076-0.943-2.027c-0.807-0.221-1.352-0.803-1.319-1.885c0.313-0.283,0.497-0.641,0.849-0.898
			c1.006-0.016,2.012-0.029,3.018-0.047c-0.018,0.502,0.029,0.721,0.141,1.133c0.252,0.078,0.503,0.158,0.755,0.236
			c0.452-0.287,0.576-0.855,0.896-1.273c0.462-0.609,1.629-1.055,2.498-1.227c1.678-0.33,2.914,1.35,4.198,0.424
			c-0.053-2.395,0.598-3.488,2.31-4.102c0.311-0.113,1.337-0.645,1.792-0.236c0.031,0,0.062,0,0.094,0c0,0.141,0,0.283,0,0.424
			c0.314,0,0.629,0,0.943,0c0.372,0.492,1.368,2.57,1.227,3.443c-0.182,1.107-0.534,2.02-0.284,3.348
			c0.358,0.182,0.49,0.262,0.991,0.234c0.201-0.633,0.759-1.795,1.415-1.979c0.604-0.17,1.053,0.076,1.414-0.283
			c0.016-1.242,0.031-2.484,0.047-3.725c2.138-0.184,1.863-2.098,4.197-2.123c0.048-0.824,0.647-1.201,1.509-1.178
			c0.141,0.455,0.284,0.91,0.425,1.367c0,0.471,0,0.941,0,1.414c0.377,0.174,0.754,0.346,1.132,0.52
			c1.51-1.27,2.507-0.709,2.45-3.584c0.778-0.229,0.882-0.586,1.086-1.416c1.048-0.109,1.744-0.732,2.594-0.941
			c1.261-0.314,2.007,0.543,3.018,0.234c1.253-0.383,1.679-1.311,3.631-1.414c0.031-0.203,0.062-0.408,0.094-0.613
			c0.924-0.064,2.12,0.033,3.112-0.094c0.094-0.096,0.188-0.188,0.283-0.283c0.031-0.236,0.062-0.471,0.095-0.707
			c1.052-0.117,2.437,0.014,3.018-0.66c0.521-0.604,0.405-1.688,1.084-2.264c0.625-0.529,1.696-0.684,2.358-1.178
			c0.032-0.316,0.063-0.631,0.095-0.945c2.156,0.08,5.032,0.498,5.988-0.895c-0.085-0.09-0.02-0.848,0.141-0.943
			c0.016,0,0.032,0,0.048,0c0,0.25,0,0.502,0,0.754c0.094-0.016,0.188-0.031,0.282-0.047c-0.017-0.338-0.003-0.484,0.188-0.611
			c0.116-0.08,0.183-0.107,0.331-0.049c0.063,0.031,0.127,0.062,0.187,0.094c0.018,0.078,0.033,0.158,0.05,0.236
			C495.183,669.755,494.979,669.755,494.775,669.755z"/>
		<path fill-rule="evenodd" clip-rule="evenodd" fill="#FFF2BC" stroke="#9A9377" stroke-miterlimit="10" d="M358.594,693.851
			c0.157,0.016,0.313,0.031,0.472,0.047c1.062,2.162,0.551,4.381,0.047,6.555c-0.062,0.502-0.126,1.006-0.189,1.508
			c-0.363,0.146-0.568,0.242-0.99,0.143c-0.305-1.855-0.127-2.893,0.236-4.668c0.232-1.137-0.138-2.537,0.236-3.49
			C358.468,693.913,358.53,693.882,358.594,693.851z"/>
		<path fill-rule="evenodd" clip-rule="evenodd" fill="#FFF2BC" stroke="#9A9377" stroke-miterlimit="10" d="M356.142,709.79
			c0.078,0,0.156,0,0.236,0c0.09,0.436,0.215,0.889,0.66,0.988c0.106,0.721-0.119,1.047-0.236,1.652
			c0.062,0.471,0.125,0.941,0.188,1.412c-0.329,0.975-0.659,1.951-0.99,2.926c-0.33,1.424,0.311,2.602,0.473,3.818
			c0.082,0.613-0.51,1.328-1.273,0.99c-0.732-0.324-0.773-2.762-0.943-3.867c-0.543-3.555,0.799-5.174,1.557-7.779
			C355.921,709.884,356.032,709.835,356.142,709.79z"/>
		<path fill-rule="evenodd" clip-rule="evenodd" fill="#FFF2BC" stroke="#9A9377" stroke-miterlimit="10" d="M371.797,729.923
			c0.267,0.016,0.534,0.031,0.802,0.049c0.184,1.127-0.468,2.395-1.744,2.357c-0.111-0.143-0.221-0.285-0.331-0.426
			c-0.417-1.113,0.343-1.486,1.132-1.65C371.702,730.144,371.749,730.034,371.797,729.923z"/>
		<path fill-rule="evenodd" clip-rule="evenodd" fill="#FFF2BC" stroke="#9A9377" stroke-miterlimit="10" d="M370.523,743.222
			c0.565,0.078,1.132,0.158,1.698,0.234c0.154,1.014-0.294,1.342-0.708,1.887c-1.026,0.008-1.355,0.324-1.839,0.85
			c-0.299-0.031-0.598-0.062-0.896-0.096c-0.033-0.463-0.226-0.744-0.566-0.895c-0.298-0.016-0.597-0.031-0.896-0.047
			c-0.105-0.359-0.035-0.924,0.047-1.227C368.299,743.569,369.634,743.683,370.523,743.222z"/>
		<path fill-rule="evenodd" clip-rule="evenodd" fill="#FFF2BC" stroke="#9A9377" stroke-miterlimit="10" d="M438.804,684.325
			l0.565,0.047l0.188-0.234l0.236-0.426l0.424-0.141h0.283l0.047-0.424l-0.095-0.236l-0.047-0.426h-0.283v-0.281l-0.565-0.096
			l-0.378,0.283l-0.282,0.52l-0.189,0.424l-0.424,0.236l-0.188,0.33v0.566l0.047,0.234l0.564,0.047L438.804,684.325z"/>
	</g>
	<g id="trefles_1_">
		
			<use xlink:href="#wind"  width="17.836" height="18.87" id="trefles_x5F_btn" x="-8.376" y="-9.282" transform="matrix(1 0 0 -1 514.25 701.623)" overflow="visible"/>
		<text id="trefles_x5F_text" transform="matrix(1 0 0 1 477.7012 723.6641)" font-family="'Helvetica-Bold'" font-size="14">Trfles</text>
	</g>
	<g id="grenade_1_">
		
			<use xlink:href="#wind"  width="17.836" height="18.87" id="grenade_x5F_btn" x="-8.376" y="-9.282" transform="matrix(1 0 0 -1 522.5557 691.1904)" overflow="visible"/>
		<text id="gremade_x5F_text" transform="matrix(1 0 0 1 532.375 695.3262)" font-family="'Helvetica-Bold'" font-size="14">Grenade</text>
	</g>
	<g id="pmathurin_1_">
		
			<use xlink:href="#barrel"  width="18.061" height="30.283" id="pmathurin_x5F_btn" x="-9.03" y="-15.142" transform="matrix(1 0 0 -1 475.6279 676.3018)" overflow="visible"/>
		<text id="pmathurin_x5F_text" transform="matrix(1 0 0 1 467.7021 656.3555)" font-family="'Helvetica-Bold'" font-size="14">Port Mathurin</text>
	</g>
	<g id="pmonnier">
		
			<use xlink:href="#barrel"  width="18.061" height="30.283" id="pmonnier_x5F_btn" x="-9.03" y="-15.142" transform="matrix(1 0 0 -1 455.6621 682.1084)" overflow="visible"/>
		<text id="pmonnier_x5F_text" transform="matrix(1 0 0 1 340.709 686.3555)" font-family="'Helvetica-Bold'" font-size="14">Pointe Monnier</text>
	</g>
</g>
</svg>
